<svg xmlns="http://www.w3.org/2000/svg" width="182.672" height="50" viewBox="0 0 182.672 50">
  <path id="Path_30" data-name="Path 30" d="M-.172,9.643v50" transform="translate(1.172 -9.643)" fill="none" stroke="#008938" stroke-width="2"/>
  <text id="Department_for_Environment_Food_Rural_Affairs" data-name="Department for Environment Food &amp; Rural Affairs" transform="translate(66.672 4)" fill="#fff" font-size="12" font-family="ArialMT, Arial"><tspan x="0" y="11">Department for </tspan><tspan x="0" y="25">Environment Food &amp; </tspan><tspan x="0" y="39">Rural Affairs</tspan></text>
  <g id="Coat_Of_Arms_Logo" data-name="Coat Of Arms Logo" transform="translate(6.171 2)">
    <path id="Fill_1" data-name="Fill 1" d="M.451,0C.192.5-.033.786,0,1.167s.436.65.624,1.041c.174-.447.462-.787.428-1.134S.532.251.451,0" transform="translate(23.114 7.439)" fill="#fff"/>
    <path id="Fill_3" data-name="Fill 3" d="M.608,0c.255.5.483.786.447,1.167s-.436.65-.624,1.041C.258,1.761-.03,1.421,0,1.074S.52.251.608,0" transform="translate(29.605 7.439)" fill="#fff"/>
    <path id="Fill_5" data-name="Fill 5" d="M.45.9A.454.454,0,0,0,.9.454.455.455,0,0,0,.45,0a.45.45,0,1,0,0,.9" transform="translate(19.289 6.249)" fill="#fff"/>
    <path id="Fill_7" data-name="Fill 7" d="M.9.447A.449.449,0,1,0,.447.9.451.451,0,0,0,.9.447" transform="translate(19.141 7.345)" fill="#fff"/>
    <path id="Fill_9" data-name="Fill 9" d="M.9.447A.454.454,0,0,0,.447,0a.447.447,0,0,0,0,.894A.454.454,0,0,0,.9.447" transform="translate(19.361 8.434)" fill="#fff"/>
    <path id="Fill_11" data-name="Fill 11" d="M.447.894A.451.451,0,0,0,.9.447a.449.449,0,1,0-.45.447" transform="translate(21.776 4.115)" fill="#fff"/>
    <path id="Fill_13" data-name="Fill 13" d="M.45.9A.455.455,0,0,0,.9.447a.45.45,0,0,0-.9,0A.453.453,0,0,0,.45.9" transform="translate(20.659 4.454)" fill="#fff"/>
    <path id="Fill_15" data-name="Fill 15" d="M.45.894A.447.447,0,1,0,.45,0,.451.451,0,0,0,0,.447.449.449,0,0,0,.45.894" transform="translate(19.779 5.225)" fill="#fff"/>
    <path id="Fill_17" data-name="Fill 17" d="M.45.9a.45.45,0,0,0,0-.9A.454.454,0,0,0,0,.447.453.453,0,0,0,.45.9" transform="translate(22.948 4.216)" fill="#fff"/>
    <path id="Fill_19" data-name="Fill 19" d="M.45.9A.45.45,0,1,0,0,.447.451.451,0,0,0,.45.9" transform="translate(24.062 4.54)" fill="#fff"/>
    <path id="Fill_21" data-name="Fill 21" d="M.45.9a.45.45,0,1,0,0-.9A.454.454,0,0,0,0,.447.455.455,0,0,0,.45.9" transform="translate(25.108 5.031)" fill="#fff"/>
    <path id="Fill_23" data-name="Fill 23" d="M0,.454A.449.449,0,1,0,.45,0,.451.451,0,0,0,0,.454" transform="translate(33.573 6.249)" fill="#fff"/>
    <path id="Fill_25" data-name="Fill 25" d="M.45,0A.449.449,0,0,0,0,.447.455.455,0,0,0,.45.9.453.453,0,0,0,.9.447.447.447,0,0,0,.45,0" transform="translate(33.721 7.345)" fill="#fff"/>
    <path id="Fill_27" data-name="Fill 27" d="M.447,0A.451.451,0,0,0,0,.447a.449.449,0,0,0,.9,0A.451.451,0,0,0,.447,0" transform="translate(33.505 8.434)" fill="#fff"/>
    <path id="Fill_29" data-name="Fill 29" d="M.45.894A.451.451,0,0,0,.9.447.447.447,0,0,0,.45,0,.449.449,0,0,0,0,.447.454.454,0,0,0,.45.894" transform="translate(31.086 4.115)" fill="#fff"/>
    <path id="Fill_31" data-name="Fill 31" d="M.45.9A.45.45,0,1,0,0,.447.453.453,0,0,0,.45.9" transform="translate(32.204 4.454)" fill="#fff"/>
    <path id="Fill_33" data-name="Fill 33" d="M.45.894A.449.449,0,0,0,.9.447a.45.45,0,0,0-.9,0A.447.447,0,0,0,.45.894" transform="translate(33.083 5.225)" fill="#fff"/>
    <path id="Fill_35" data-name="Fill 35" d="M.45.9A.45.45,0,1,0,0,.447.451.451,0,0,0,.45.9" transform="translate(29.914 4.216)" fill="#fff"/>
    <path id="Fill_37" data-name="Fill 37" d="M.45.9A.45.45,0,1,0,0,.447.455.455,0,0,0,.45.9" transform="translate(28.8 4.54)" fill="#fff"/>
    <path id="Fill_39" data-name="Fill 39" d="M0,.447A.449.449,0,1,0,.447,0,.45.45,0,0,0,0,.447" transform="translate(27.754 5.03)" fill="#fff"/>
    <path id="Fill_41" data-name="Fill 41" d="M0,2.082H.506V.159A1.763,1.763,0,0,1,0,0Z" transform="translate(26.114 5.832)" fill="#fff"/>
    <path id="Fill_43" data-name="Fill 43" d="M.506,0A1.882,1.882,0,0,1,0,.159V2.082H.506Z" transform="translate(27.144 5.83)" fill="#fff"/>
    <path id="Fill_45" data-name="Fill 45" d="M1.1,1.148V0A1.427,1.427,0,0,0,0,1.148Z" transform="translate(25.489 2.562)" fill="#fff"/>
    <path id="Fill_47" data-name="Fill 47" d="M0,1.148H1.1A1.433,1.433,0,0,0,0,0Z" transform="translate(27.177 2.562)" fill="#fff"/>
    <path id="Fill_49" data-name="Fill 49" d="M0,0A1.406,1.406,0,0,0,1.377,1.1,1.413,1.413,0,0,0,2.758,0Z" transform="translate(25.504 4.259)" fill="#fff"/>
    <path id="Fill_51" data-name="Fill 51" d="M1.95,2.359a1.563,1.563,0,0,1-.613-1A1.8,1.8,0,0,1,2.356,2V.462a1.768,1.768,0,0,1-1.019.65A2.321,2.321,0,0,1,1.924,0H.432a2.274,2.274,0,0,1,.583,1.111A1.759,1.759,0,0,1,0,.462V2a1.79,1.79,0,0,1,1.015-.646,1.547,1.547,0,0,1-.613,1Z" transform="translate(25.704 0.032)" fill="#fff"/>
    <path id="Fill_53" data-name="Fill 53" d="M10.766,9.691a11.645,11.645,0,0,1-2.884-.454,12.582,12.582,0,0,1-2.5-.975,1.177,1.177,0,0,1-.688.238,1.068,1.068,0,0,1-.464-.109A1.423,1.423,0,0,1,3.445,7.31c0-.041,0-.087.008-.131,0-.016,0-.031,0-.046a12.6,12.6,0,0,1-.908-.912A10.764,10.764,0,0,1,.52,2.813,12.1,12.1,0,0,1,0,.982,1.846,1.846,0,0,0,.6,1.1,1,1,0,0,0,1.385.727c.078.022.084.257.074.347A1.474,1.474,0,0,0,2.935,0a8.043,8.043,0,0,0,.41,1.6A7.691,7.691,0,0,0,4.73,4.01a6.13,6.13,0,0,0,.65.668,1.31,1.31,0,0,1,.428-.085,1.189,1.189,0,0,1,.89.439,1.207,1.207,0,0,1,.321.953l0,.022a28.845,28.845,0,0,0,4.674,1.672,9.8,9.8,0,0,0,2.192.337,3.035,3.035,0,0,0,.425-.027.565.565,0,0,1-.1.092,6.773,6.773,0,0,1-.945.724A5.152,5.152,0,0,1,10.766,9.691Zm-.694-1.739a.556.556,0,1,0,.558.557A.558.558,0,0,0,10.072,7.953ZM3.928,5.6a2.739,2.739,0,0,0,.2.381l.041.074-.044.063A2.389,2.389,0,0,0,3.7,7.31a1.2,1.2,0,0,0,.635.853.8.8,0,0,0,.345.082.883.883,0,0,0,.426-.119c-.131-.068-.316-.178-.45-.266l-.07-.044a.485.485,0,0,1-.281-.3.3.3,0,0,1-.014-.1A1.135,1.135,0,0,1,4.475,6.9c.015-.025.029-.046.041-.064l.007-.01c.009-.013.017-.026.025-.039l.006-.008A.473.473,0,0,0,4.6,6.7L4.67,6.6l.111.066a.966.966,0,0,0,.46.147.407.407,0,0,0,.094-.01.231.231,0,0,0,.148-.119c.085-.151.041-.4-.247-.631l-.1-.089.155-.173a2.808,2.808,0,0,1,.325-.34.56.56,0,0,1,.365-.161.646.646,0,0,1,.384.157l.151.107.093.072,0,0c.054.042.1.081.152.113A1.078,1.078,0,0,0,6.506,5.2a.965.965,0,0,0-.7-.347c-.6,0-1.243.706-1.315.787l-.052.052-.074-.014A3.6,3.6,0,0,0,3.928,5.6Zm3.5,1.433a.606.606,0,1,0,.605.606A.6.6,0,0,0,7.425,7.029Z" transform="translate(17.619 25.568)" fill="#fff"/>
    <path id="Fill_55" data-name="Fill 55" d="M2.492,6.014a.675.675,0,0,1-.676-.672.7.7,0,0,1,.044-.236c-.541-.023-.689-.613-.8-1.043C1,3.809.948,3.607.838,3.607c-.15,0-.255.225-.358.476A1.8,1.8,0,0,1,0,2.994a.968.968,0,0,1,.964-.967.78.78,0,0,1,.3.052V0A11.493,11.493,0,0,0,3.737.377V2.071a.879.879,0,0,1,.284-.044.968.968,0,0,1,.964.967A1.8,1.8,0,0,1,4.5,4.083c-.134-.3-.224-.476-.37-.476-.109,0-.158.2-.221.455-.105.431-.249,1.02-.791,1.044a.7.7,0,0,1,.041.236A.673.673,0,0,1,2.492,6.014Zm0-1.045a.375.375,0,0,0-.376.372.382.382,0,0,0,.376.377.377.377,0,0,0,.377-.377A.371.371,0,0,0,2.492,4.97Zm0-1.255c.178,0,.284.088.284.236a.381.381,0,0,1-.068.2l0,0a.467.467,0,0,0-.081.255.42.42,0,0,0,.462.4c.361,0,.471-.413.577-.812.1-.365.189-.709.465-.709a.492.492,0,0,1,.38.3,1.421,1.421,0,0,0,.177-.591.672.672,0,0,0-.665-.672c-.456,0-.58.37-.68.668-.069.206-.129.384-.28.384a.257.257,0,0,1-.284-.258A.742.742,0,0,1,3.008,2.7a.982.982,0,0,0,.3-.6c0-.436-.4-.8-.82-1.138-.414.336-.82.7-.82,1.138a.982.982,0,0,0,.3.6.742.742,0,0,1,.231.413.258.258,0,0,1-.285.258c-.151,0-.21-.177-.279-.382-.1-.3-.224-.669-.681-.669A.672.672,0,0,0,.3,2.994a1.332,1.332,0,0,0,.181.591.487.487,0,0,1,.377-.3c.277,0,.369.345.466.71.106.4.215.811.576.811a.419.419,0,0,0,.461-.4.469.469,0,0,0-.082-.256.381.381,0,0,1-.069-.2C2.208,3.8,2.314,3.714,2.492,3.714Z" transform="translate(24.404 35.395)" fill="#fff"/>
    <path id="Fill_57" data-name="Fill 57" d="M42.815,5.35a.181.181,0,0,0-.221-.107c-1.983.576-4.442-1.06-6.816-2.647-2-1.333-3.891-2.6-5.509-2.6a3.342,3.342,0,0,0-1.591.373,2.877,2.877,0,0,0-1.259,1.466,8.882,8.882,0,0,1-.79,1.484,2.171,2.171,0,0,0-.48,1.141,1.217,1.217,0,0,0,.417.878,4.178,4.178,0,0,0,1.038.705,2.624,2.624,0,0,0,.306.152c.388.2.635.325.679.55a13.4,13.4,0,0,1-2.946.831,24.556,24.556,0,0,1-4.227.343,24.463,24.463,0,0,1-4.227-.343,13.127,13.127,0,0,1-2.957-.838c.033-.325.277-.462.7-.665.1-.048.2-.092.31-.151a4.957,4.957,0,0,0,1.015-.643,1.036,1.036,0,0,0,.41-.819A2.154,2.154,0,0,0,16.2,3.323a8.882,8.882,0,0,1-.79-1.484A2.82,2.82,0,0,0,14.146.381,3.334,3.334,0,0,0,12.562.008C10.941.008,9.047,1.263,7.046,2.6,4.676,4.183,2.217,5.819.234,5.243a.189.189,0,0,0-.225.114.184.184,0,0,0,.1.225A8.267,8.267,0,0,1,1.759,6.661a3.8,3.8,0,0,0,2.13,1.081,5.2,5.2,0,0,0,2.381-.7A25.978,25.978,0,0,0,8.7,5.516c1.565-1.067,3.183-2.171,4.718-2.293q-.244.238-.465.432A1.848,1.848,0,0,0,12.1,5.117a3.268,3.268,0,0,0,.458,1.518c.078.159.166.336.259.547a5.9,5.9,0,0,1,.343,1.1c.041.181.1.38.159.62a2.316,2.316,0,0,0,1.407,1.621c1.3.665,3.548,1,6.686,1s5.379-.339,6.683-1A2.338,2.338,0,0,0,29.5,8.906c.063-.24.114-.44.155-.62A5.9,5.9,0,0,1,30,7.181c.125-.281.251-.506.358-.705a2.63,2.63,0,0,0,.421-1.292,1.962,1.962,0,0,0-.89-1.514c-.152-.137-.314-.28-.48-.454,1.539.122,3.153,1.225,4.718,2.3a25.87,25.87,0,0,0,2.426,1.522,5.149,5.149,0,0,0,2.381.7,3.8,3.8,0,0,0,2.13-1.085,8.648,8.648,0,0,1,1.647-1.074.188.188,0,0,0,.1-.233" transform="translate(5.477 34.106)" fill="#fff"/>
    <path id="Fill_59" data-name="Fill 59" d="M13.6,24.868h0a10.611,10.611,0,0,1-2.31-.386c-.214-.048-.351-.089-.542-.146l-.182-.054a2.488,2.488,0,0,1,.144-.628,1.6,1.6,0,0,1,.3-.558.3.3,0,0,0,.124-.1.329.329,0,0,1,.116-.1,6.417,6.417,0,0,0,2.056-1.617,7.756,7.756,0,0,0,1.385-2.407,8.689,8.689,0,0,0,.5-2.725H9.016V23.02c.489.021,1.4.113,1.414.114a1.856,1.856,0,0,0-.391,1c-.653-.2-1.346-.457-2.12-.772a.972.972,0,0,1,.724-.347V16.142H2.326a2.191,2.191,0,0,0-.248-.853A1.675,1.675,0,0,1,1.628,14.1a2.06,2.06,0,0,0-.516-1.111C.942,12.769.182,11.938,0,11.748A10.781,10.781,0,0,1,2.027,8.366,9.9,9.9,0,0,1,3.95,6.7a1.38,1.38,0,0,1-.757-1.189,1.109,1.109,0,0,1,.377-.831A10.956,10.956,0,0,0,1.86,1.207L3.131.672a1.966,1.966,0,0,0-.277,1.444,1.607,1.607,0,0,0,.72-.975,6.232,6.232,0,0,0,.469,1.384A1.515,1.515,0,0,0,3.4,2.343a.981.981,0,0,0-.4.089,1.5,1.5,0,0,0,1.191.581,1.768,1.768,0,0,0,.4-.048c.214-.054.91-.264.886-.706a.443.443,0,0,0-.417-.433H5.028a.248.248,0,0,0-.192.133.646.646,0,0,0-.018.506A1.3,1.3,0,0,1,4.363,1.4a.389.389,0,0,1,.282-.359.445.445,0,0,1,.123-.017c.425,0,.77.6.889.973C5.7,1.672,5.869.914,6.4.914h.031a.367.367,0,0,1,.322.235,1.482,1.482,0,0,1-.134,1.165c-.033-.37-.23-.569-.4-.569H6.2c-.087.008-.367.067-.328.469.038.321.5.554,1.089.554a1.4,1.4,0,0,0,1.573-1.2,1.911,1.911,0,0,0-1.111.679,6.848,6.848,0,0,0,0-1.732,1.734,1.734,0,0,0,1.1.679A2.094,2.094,0,0,0,7.595,0H9.906a2.09,2.09,0,0,0-.927,1.192A1.735,1.735,0,0,0,10.094.513a6.774,6.774,0,0,0,0,1.732,1.964,1.964,0,0,0-1.134-.679,1.4,1.4,0,0,0,1.573,1.2c.6,0,1.054-.233,1.092-.554a.456.456,0,0,0-.081-.344.365.365,0,0,0-.247-.124H11.28c-.171,0-.363.2-.4.569a1.492,1.492,0,0,1-.133-1.166.37.37,0,0,1,.325-.233H11.1c.523,0,.692.757.74,1.083.149-.472.51-.973.883-.973a.438.438,0,0,1,.122.017.392.392,0,0,1,.284.364,1.289,1.289,0,0,1-.458,1.061.615.615,0,0,0-.009-.5.251.251,0,0,0-.2-.139h-.035a.434.434,0,0,0-.416.433c-.019.441.674.651.886.706a1.783,1.783,0,0,0,.405.048A1.472,1.472,0,0,0,14.5,2.426a1.022,1.022,0,0,0-.39-.081,1.536,1.536,0,0,0-.644.18,5.863,5.863,0,0,0,.469-1.384,1.616,1.616,0,0,0,.705.96A1.971,1.971,0,0,0,14.366.672l1.274.535a11.025,11.025,0,0,0-1.713,3.467,1.073,1.073,0,0,1,.4.838A1.383,1.383,0,0,1,13.561,6.7a9.792,9.792,0,0,1,1.924,1.665,9.437,9.437,0,0,1,1.2,1.617,1.292,1.292,0,0,0-.181.229,2.357,2.357,0,0,1-.237.285c-.051.056-.1.11-.129.146a.844.844,0,0,0-.211.513,1.185,1.185,0,0,0,.192.576c.153.252,1.131,2.188,1.373,2.677a2.509,2.509,0,0,0,.76.886c.013.187.011.283.009.415,0,.056,0,.118,0,.2a11.816,11.816,0,0,1-.743,4.169,10.851,10.851,0,0,1-2.03,3.411,9.726,9.726,0,0,1-1.366,1.282h0A.877.877,0,0,1,13.6,24.868ZM9.016,8.337v7.436H15.2a8.621,8.621,0,0,0-.505-2.828,7.751,7.751,0,0,0-1.385-2.407A6.465,6.465,0,0,0,11.25,8.913,5.586,5.586,0,0,0,9.016,8.337Zm-.373-.007a5.594,5.594,0,0,0-2.385.583,6.522,6.522,0,0,0-2.052,1.625,7.77,7.77,0,0,0-1.385,2.407,8.527,8.527,0,0,0-.5,2.828H8.643Zm.115-3.094a7.871,7.871,0,0,1,4.4,1.185c.487-.286.7-.566.7-.908,0-.518-.642-.887-1.909-1.1a20.131,20.131,0,0,0-3.2-.2h0a20.1,20.1,0,0,0-3.2.2c-1.266.21-1.908.579-1.908,1.1,0,.342.214.623.694.908A7.837,7.837,0,0,1,8.758,5.236Z" transform="translate(18.139 8.302)" fill="#fff"/>
    <path id="Fill_61" data-name="Fill 61" d="M2.544,6.332h0a.415.415,0,0,1-.107-.4H.613a.11.11,0,0,0,.03.079.121.121,0,0,0,.086.033.144.144,0,0,0,.117-.06.23.23,0,0,1-.216.248.135.135,0,0,1-.057-.012.184.184,0,0,1-.093-.2A.437.437,0,0,1,.2,6.13a.444.444,0,0,1,.1-.281l-.04,0a.161.161,0,0,1-.159-.1.174.174,0,0,1,.023-.158.251.251,0,0,1,.217-.108.136.136,0,0,0-.056.151.108.108,0,0,0,.11.074H.406V3.087A.447.447,0,0,1,.292,3.1.4.4,0,0,1,0,2.976a.409.409,0,0,1,.284-.118.427.427,0,0,1,.122.018V.462H.4A.106.106,0,0,0,.291.535.126.126,0,0,0,.34.676.244.244,0,0,1,.134.558.186.186,0,0,1,.122.388.19.19,0,0,1,.285.31.443.443,0,0,1,.2.015.4.4,0,0,1,.48.159.173.173,0,0,1,.587.008.142.142,0,0,1,.635,0,.2.2,0,0,1,.779.066a.255.255,0,0,1,.063.2A.146.146,0,0,0,.718.194.1.1,0,0,0,.609.3,4.911,4.911,0,0,1,2.1.979a6,6,0,0,1,1.34,1.248c.044.067.089.122.136.181a.4.4,0,0,1,.34-.184.483.483,0,0,1,.055,0,.409.409,0,0,1-.262.332L3.7,2.566a.019.019,0,0,0-.009.008A6.983,6.983,0,0,1,4.877,5.712h.013A.111.111,0,0,0,5,5.633a.132.132,0,0,0-.056-.147h.01a.24.24,0,0,1,.208.1.172.172,0,0,1,.023.156.166.166,0,0,1-.172.1H4.992a.426.426,0,0,1,.111.273.411.411,0,0,1-.277-.1.173.173,0,0,1-.1.2.115.115,0,0,1-.06.015A.229.229,0,0,1,4.456,6a.133.133,0,0,0,.108.055.123.123,0,0,0,.091-.038.106.106,0,0,0,.027-.084H2.651a.407.407,0,0,1-.107.4ZM2.82,5.5a.148.148,0,0,1,.053.01.192.192,0,0,1,.107.21H4.523A.383.383,0,0,1,4.4,5.428a.36.36,0,0,1,.225.067A6.691,6.691,0,0,0,3.7,2.983a.181.181,0,0,1-.085.022.137.137,0,0,1-.077-.022.18.18,0,0,1-.063-.206.508.508,0,0,1-.238.066.429.429,0,0,1-.054,0,.41.41,0,0,1,.144-.258.193.193,0,0,1-.185-.122A.184.184,0,0,1,3.2,2.286,5.572,5.572,0,0,0,1.976,1.16,5.037,5.037,0,0,0,.79.576.485.485,0,0,1,.853.835.422.422,0,0,1,.62.742V2.552a.2.2,0,0,1,.043,0,.179.179,0,0,1,.171.1.176.176,0,0,1-.078.211.433.433,0,0,1,.273.114A.371.371,0,0,1,.757,3.1c.1.083.1.159.078.207a.166.166,0,0,1-.174.1l-.04,0V5.554a.385.385,0,0,1,.266-.1.43.43,0,0,1-.092.269H2.108a.2.2,0,0,1,.107-.21.149.149,0,0,1,.053-.01.206.206,0,0,1,.154.08.408.408,0,0,1,.122-.266.426.426,0,0,1,.122.266A.209.209,0,0,1,2.82,5.5Z" transform="translate(27.411 17.376)" fill="#fff"/>
    <path id="Fill_63" data-name="Fill 63" d="M3.024,3.194a.365.365,0,0,0,.17-.151.211.211,0,0,1-.174-.022c.059-.044.129,0,.059-.114s-.122-.114-.2-.037a.438.438,0,0,1-.561-.388.337.337,0,0,0,.166.136.174.174,0,0,0,.059.03.384.384,0,0,0,.067.011.235.235,0,0,0,.14.022.223.223,0,0,1,.026.007V2.666a.209.209,0,0,0,.188-.185c.018-.2-.174-.3-.384-.476a2.694,2.694,0,0,1-.2-.181,1.849,1.849,0,0,0-.207-.543,1.534,1.534,0,0,0-.059-.237.673.673,0,0,0,.111.779c.207.222.646.447.624.635a.13.13,0,0,1-.107.1.212.212,0,0,1-.067-.007.153.153,0,0,1-.041-.015A.653.653,0,0,1,2.548,2.5.856.856,0,0,1,2.4,2.378a4.114,4.114,0,0,1-.451-.561.8.8,0,0,1-.081-.72c.144-.2-.089-.606-.221-.7A.39.39,0,0,0,1.636.181.213.213,0,0,1,1.51.192C1.47.122,1.455.107,1.407.1c-.092-.015-.089-.063-.1-.1-.048.041-.063.093-.118.093-.074.007-.1,0-.129.03A.187.187,0,0,1,.909.174C.82.174.824.222.831.281A.119.119,0,0,0,.894.4.038.038,0,0,0,.92.41L.983.484,1.027.4c.037-.03.14-.044.162.037C1.2.491,1.215.5,1.145.51A1.408,1.408,0,0,1,.968.532c-.044,0-.044.059-.041.1s.052.07.152.048.273-.041.273.044c0,.218-.251.211-.306.469a.448.448,0,0,1-.155-.144A1.03,1.03,0,0,0,.7.812,1.139,1.139,0,0,0,.514.661C.433.613.429.569.429.476.429.4.462.332.462.259A.479.479,0,0,0,.44.188.134.134,0,0,0,.322.114.138.138,0,0,1,.366.192.1.1,0,0,0,.333.237a.052.052,0,0,0,0,.074s0,.007,0,.015a.094.094,0,0,1,0,.033c0,.015,0,.015-.008,0C.307.31.281.229.226.222H.192A.037.037,0,0,0,.2.207C.2.152.137.107.063.181.078.181.111.188.119.2A.275.275,0,0,0,.107.259C.1.31.145.34.2.34.215.34.222.347.222.351s0,.015.008.022,0,.015-.008.008C.122.34.078.388.074.432a.16.16,0,0,0,0,.037C.041.491.034.547.1.591.1.569.1.539.122.525S.133.525.137.517c.011.015.026.03.03.03S.189.547.218.525C.226.517.233.517.244.525L.277.547c.008.008,0,.008,0,.015C.211.628.222.683.3.705.263.772.148.75.152.643.067.779.207.872.325.82c0,.052,0,.151.019.151C.34.964.351.945.37.945S.381.953.381.96a.072.072,0,0,0,.063.077c-.008-.022,0-.03.015-.037.018.03.037.067.055.1a1,1,0,0,0,.432.476,1.046,1.046,0,0,0-.306.288c-.07.07-.177.151-.247.107-.03-.015-.037-.044-.074-.081A.289.289,0,0,0,.23,1.868c0,.008-.026.008-.041.019a.132.132,0,0,0-.14.044.1.1,0,0,1,.1.015c0,.015,0,.044,0,.044,0,.037.022.063.159.055.007,0,.022.007.015.022a.075.075,0,0,1-.074.015C.182,2.068.159,2.02.115,2.075a.132.132,0,0,1-.033.037H.067c-.048.015-.1.122-.041.166a.107.107,0,0,1,.041-.085L.1,2.226c.037.059.077.089.17-.048.011-.015.015,0,.011.007,0,.063-.07.152.015.163a.091.091,0,0,1,.037.007V2.37a.121.121,0,0,0,.155.074.148.148,0,0,1-.085-.1H.447C.492,2.3.436,2.241.462,2.2a.017.017,0,0,1,.018,0,.089.089,0,0,0,.129.059.119.119,0,0,0,.048-.085A.4.4,0,0,1,.9,2.119c-.011-.044.044-.114.14-.137a.157.157,0,0,1,.174.03.45.45,0,0,1,.092-.166c-.007.388.513.38.632.606a.917.917,0,0,0-.424-.081c-.126.022-.351.137-.381.284a.546.546,0,0,0,.229.417c-.148.03-.207-.015-.339.015H1c-.114.007-.129-.2-.273-.144C.724,2.95.7,2.961.691,2.968c-.052,0-.126.067-.114.126a.166.166,0,0,1,.085-.051v.03c0,.022,0,.044.055.044.03,0,.037-.015.055-.015a.017.017,0,0,1,.015.018c0,.051-.174-.033-.144.118a.1.1,0,0,0,.026.041c-.007.044.03.089.111.066-.015-.007-.044-.03-.037-.059a.11.11,0,0,1,.034.008c.011,0,.018-.008.018-.022s0,0,.007,0a.038.038,0,0,1,.015,0c0,.008-.011.022-.011.037A.177.177,0,0,0,.82,3.36c-.008.052.074.107.148.052C.946,3.412.9,3.4.894,3.375A.346.346,0,0,1,.931,3.36a.077.077,0,0,0,.015-.051c0-.022,0-.022.015-.022H1c.015-.007.018,0,.026.015a.1.1,0,0,0,.107.044.075.075,0,0,0,.048-.037.213.213,0,0,1,.063.037c-.015-.059.022-.1.148-.022L1.47,3.26s.114.048.159-.008c.077-.067.037-.067.037-.133-.055-.114-.081-.1-.1-.214-.037-.188.225-.3.384-.266a.885.885,0,0,0,.487.539c.177.059.247-.136.31-.107a.084.084,0,0,1,.03.048.965.965,0,0,1-.019.21c-.018.045-.114.008-.181.008a.065.065,0,0,0-.07.03.141.141,0,0,0-.118.122.329.329,0,0,1,.1-.059.108.108,0,0,1,0,.03.087.087,0,0,0,.148.052c0-.015.022,0,.011.007-.041.03-.126.107-.052.137a.3.3,0,0,1,.037.015.09.09,0,0,0,.067.1c-.015-.03-.019-.041.007-.093a.111.111,0,0,0,.041.008c.044,0,.026-.1.077-.122,0-.008.011-.008.008,0-.019.055-.026.122.022.136a.38.38,0,0,0,.044.007c.015.041.063.078.137.034-.015-.008-.059-.019-.067-.041a.325.325,0,0,0,.037-.044c.037-.114-.067-.122-.067-.166s.118-.022.118-.136a.041.041,0,0,1,0-.015c.052-.03.107-.067.111-.107a.348.348,0,0,1-.14-.03Z" transform="translate(28.253 18.999)" fill="#fff"/>
    <path id="Fill_65" data-name="Fill 65" d="M3.555,5.523a.411.411,0,0,1-.436-.41.32.32,0,0,1,.336-.31.2.2,0,0,1,.159.052.128.128,0,0,1,.014.114c-.01.042-.06.048-.113.055s-.131.016-.131.089.065.137.185.137a.235.235,0,0,0,.266-.27c0-.269-.22-.309-.351-.309a.9.9,0,0,0-.217.029A3.932,3.932,0,0,1,.428.827.524.524,0,0,1,.348.8L.3.779.425.491A.259.259,0,0,1,.237.576.24.24,0,0,1,0,.339.241.241,0,0,1,.237.1.238.238,0,0,1,.473.339V.365L.591.077a2.639,2.639,0,0,0,1.2.377A4.231,4.231,0,0,0,3.255.145,1.9,1.9,0,0,1,3.8,0a.6.6,0,0,1,.449.173A.626.626,0,0,1,4.4.65l0,.092L4.5.749a.2.2,0,0,1,.2.21.192.192,0,0,1-.214.178H4.464l-.074,0L4.309,4.471l.1.014-.022.3c-.027.1-.15.107-.24.107a.543.543,0,0,1-.117.442A.658.658,0,0,1,3.555,5.523ZM1.063,1.008A2.909,2.909,0,0,0,1.7,3.145a4.043,4.043,0,0,0,1.68,1.2ZM1.34.986l2.1,3.038c.025-.141.053-.322.078-.481v0L3.545,3.4,1.857.975a3.037,3.037,0,0,1-.325.019A1.763,1.763,0,0,1,1.34.986Zm1.248-.2h0c-.159.059-.326.1-.472.144L3.6,3.056c.042-.248.076-.457.108-.678L2.588.786ZM3.811.332a2.173,2.173,0,0,0-.663.225l0,0C3.049.6,2.937.649,2.817.7l.944,1.35L3.8,1.786V1.781c.042-.278.072-.474.092-.6L3.906,1.1H3.844a.224.224,0,0,1-.155-.066A.195.195,0,0,1,3.852.7h.021l.089.008c.02-.2.012-.3-.029-.342A.151.151,0,0,0,3.811.332Z" transform="translate(21.562 24.926)" fill="#fff"/>
    <path id="Fill_67" data-name="Fill 67" d="M.315,2.265h0a.115.115,0,0,1-.079-.042.076.076,0,0,1-.016-.065s0-.007,0-.007S.2,2.128.193,2.128A.045.045,0,0,1,.173,2.1c0-.021.017-.042.036-.065a.242.242,0,0,0,.031-.041s0,0,0-.007a.007.007,0,0,0,0,0l0,0a.019.019,0,0,0-.01,0,.2.2,0,0,1-.1.043C.1,2.026.084,1.99.078,1.954a.16.16,0,0,0-.011-.029.1.1,0,0,0-.053.038l-.006.006a.048.048,0,0,1,0-.052A.121.121,0,0,1,.1,1.862s0,0,.005,0,0,0,.006,0a.084.084,0,0,0,.033-.022.063.063,0,0,1,.029-.009c.018,0,.028.013.042.03A.184.184,0,0,0,.248,1.9a.057.057,0,0,0,.036.012A.05.05,0,0,0,.307,1.91a.009.009,0,0,0,0-.006s0-.007,0-.011l0-.005C.225,1.864.2,1.84.2,1.824A.03.03,0,0,1,.2,1.8a.057.057,0,0,1,.018-.037.079.079,0,0,0-.066-.041A.055.055,0,0,1,.2,1.7a.086.086,0,0,1,.07.033H.311a.074.074,0,0,1,.056.041.174.174,0,0,1,.02.053A.105.105,0,0,0,.4,1.862a.1.1,0,0,0,.083.032A.559.559,0,0,0,.7,1.833a.254.254,0,0,1,.119-.019c.031,0,.06,0,.079,0h.02A1.51,1.51,0,0,0,1.2,1.736a.639.639,0,0,1-.083-.117c-.014-.024-.025-.042-.031-.042a.018.018,0,0,0-.014.007.047.047,0,0,0-.009.037A.043.043,0,0,1,1.031,1.6a.061.061,0,0,1-.007-.044.017.017,0,0,0,0-.012.011.011,0,0,0-.008,0c-.018,0-.029.022-.029.023-.017,0-.025-.011-.029-.037,0,0,0-.006,0-.006s0,0-.01.006a.182.182,0,0,1-.068.013.116.116,0,0,1-.109-.056A.1.1,0,0,1,.79,1.379.07.07,0,0,0,.8,1.44a.072.072,0,0,0,.056.025A.077.077,0,0,0,.935,1.4a.02.02,0,0,0,0-.013l0,0C.89,1.376.869,1.359.865,1.338s.014-.049.051-.074c0-.008,0-.008,0-.015L.905,1.243a.02.02,0,0,1-.011-.009A.027.027,0,0,0,.88,1.229a.008.008,0,0,0-.008.006.1.1,0,0,1-.046.019.018.018,0,0,1-.013,0S.8,1.234.794,1.227s-.011,0-.011.008a.044.044,0,0,0-.03.048.064.064,0,0,1-.037-.05.06.06,0,0,1,.029-.05c0-.007,0-.029,0-.029A.071.071,0,0,1,.825,1.1a.19.19,0,0,1,.065.014s.008,0,.009,0,0,0,0,0a.047.047,0,0,0,0-.022.017.017,0,0,0-.015-.007A.093.093,0,0,1,.8,1.058.045.045,0,0,1,.8,1.017l0-.011A.162.162,0,0,1,.821.965C.813.954.787.954.772.954A.119.119,0,0,1,.843.923.045.045,0,0,1,.878.938.041.041,0,0,1,.887.972V.987H.92c.042.007.056.067.063.118l0,0,0,0,.006,0,0-.014a.053.053,0,0,0,0-.015.067.067,0,0,0,0-.023.023.023,0,0,1-.009-.016A.064.064,0,0,1,1.009.995s0,0,.008-.008A.1.1,0,0,1,1.042.965.065.065,0,0,0,1.016.906l0,0h.011a.091.091,0,0,1,.084.064.481.481,0,0,1,.011.059.292.292,0,0,1-.028.084A.357.357,0,0,0,1.06,1.2c-.011.072-.013.108.059.152a.527.527,0,0,1,.1.077,1.217,1.217,0,0,1,.066-.288.151.151,0,0,1-.021-.02l-.012-.013c.027-.005.045-.043.065-.088A.671.671,0,0,1,1.348.954C1.334.954,1.323.94,1.3.9h.008c.021,0,.043-.026.065-.051S1.42.8,1.441.8a.194.194,0,0,1,.011-.14A.13.13,0,0,1,1.54.7C1.544.67,1.577.67,1.6.67l.014,0A.229.229,0,0,1,1.661.66l.012,0a.2.2,0,0,1,.111.029A.351.351,0,0,1,1.9.773.125.125,0,0,1,1.92.821a.142.142,0,0,0,0,.014A.051.051,0,0,1,1.946.9a.148.148,0,0,1,.093.044.113.113,0,0,1-.081.092c.038.045,0,.118-.047.19a.327.327,0,0,0-.053.121,1.282,1.282,0,0,1,.316-.042,1.319,1.319,0,0,1,.358.057.986.986,0,0,0,.257.044c.341,0,.561-.08.561-.2,0-.16-.271-.177-.557-.2-.343-.022-.7-.044-.7-.3A.225.225,0,0,1,2.223.533.109.109,0,0,1,2.246.441.676.676,0,0,1,2.5.266.578.578,0,0,0,2.729.115.277.277,0,0,1,2.57.374.4.4,0,0,0,2.795.232.66.66,0,0,1,3.291,0a.894.894,0,0,1,.122.009.808.808,0,0,0-.425.254.974.974,0,0,1-.653.322H2.319a.192.192,0,0,0-.092.136c0,.133.234.147.505.165.344.022.735.046.735.327,0,.139-.211.288-.675.288-.008,0-.012,0-.013,0s.005.007.012.011a1.333,1.333,0,0,1,.223.043.479.479,0,0,0,.127.022l.038,0h.008c.05,0,.063.025.067.034l0,0c0,.033.018.04.032.04a.109.109,0,0,0,.071-.04.1.1,0,0,1-.03.1.026.026,0,0,0,0,.015.154.154,0,0,1,0,.026c0,.028,0,.06.043.06h.011a.041.041,0,0,1-.045.037H3.32a.07.07,0,0,1,.041.056.077.077,0,0,1-.057.081c-.019.008-.035.016-.035.037s.01.02.021.029a.081.081,0,0,1,.031.1.086.086,0,0,1-.03.041.1.1,0,0,0,.048.029.1.1,0,0,1-.046.014A.058.058,0,0,1,3.235,2.2a.167.167,0,0,1-.027,0H3.2c-.037-.007-.028-.056-.02-.1l0-.012s0,0,0-.005,0,0,0,.005a.086.086,0,0,0-.036.058c-.006.02-.011.038-.027.038H3.084c-.018.04-.015.055,0,.07a.068.068,0,0,1-.056-.078l0,0a.157.157,0,0,0-.029-.013.028.028,0,0,1-.02-.021c0-.029.046-.072.067-.089a0,0,0,0,0,0,0s-.007,0-.011,0H3.024a.062.062,0,0,1-.048.023A.068.068,0,0,1,2.91,2V1.977a.3.3,0,0,0-.06.034l-.017.011c0-.055.051-.089.092-.1a.057.057,0,0,1,.052-.03l.039.008a.323.323,0,0,0,.065.01A.039.039,0,0,0,3.12,1.9a.078.078,0,0,0,.006-.048.29.29,0,0,1,.005-.1.023.023,0,0,0,0-.02.041.041,0,0,0-.032-.014h0A.34.34,0,0,0,3,1.7a.2.2,0,0,0-.114.033c-.014.008-.021.015-.022.023s.006.017.013.023.008.009.007.012S2.86,1.8,2.8,1.8a.594.594,0,0,1-.24-.059.12.12,0,0,1,.018.081c0,.023,0,.041.019.052a.186.186,0,0,1,.059.185c-.01.015-.042.024-.088.024a.391.391,0,0,1-.086-.01A.056.056,0,0,0,2.46,2.07a.042.042,0,0,0-.023.006c-.031.007-.032.028-.033.05a.062.062,0,0,1-.045.068l-.021,0a.076.076,0,0,1-.072-.047l-.006,0a.032.032,0,0,0-.016-.005.052.052,0,0,0-.033.008c-.006,0-.011,0-.011.007,0,.025,0,.038-.015.041l-.008,0a.046.046,0,0,1-.022.01c0,.022.044.03.062.03a.1.1,0,0,1-.056.018.075.075,0,0,1-.057-.025A.046.046,0,0,1,2.094,2.2a.271.271,0,0,0-.014-.033.031.031,0,0,1,.009-.02.018.018,0,0,0,.005-.01.017.017,0,0,0-.019-.015s0,0,0,.007-.012.023-.015.023H2.024c0,.01.008.02.019.03a.125.125,0,0,1,.014.015.12.12,0,0,1-.031,0,.064.064,0,0,1-.051-.021.05.05,0,0,1-.01-.042A.083.083,0,0,1,1.946,2.1a.073.073,0,0,1,0-.063c.014-.018.041-.018.065-.018s.046,0,.046-.019,0-.015-.011-.015a.036.036,0,0,0-.02.006A.051.051,0,0,1,2,2a.048.048,0,0,1-.038-.013.038.038,0,0,1-.006-.031V1.932a.11.11,0,0,0-.074.041l0,0A.074.074,0,0,1,1.9,1.915a.121.121,0,0,1,.085-.046.115.115,0,0,1,.029-.022.08.08,0,0,1,.031-.007c.04,0,.065.038.087.072l0,0c.023.035.045.069.078.069a.075.075,0,0,0,.041-.015.466.466,0,0,1,.1-.03h.006s0,0,0-.006a.272.272,0,0,0-.126-.056.054.054,0,0,1-.042-.029.265.265,0,0,1,.009-.2.273.273,0,0,1-.144.059c-.045,0-.083-.005-.116-.005-.077,0-.12.01-.136.03a.066.066,0,0,0,0,.058.08.08,0,0,1,0,.063.117.117,0,0,1-.078.039.277.277,0,0,0-.054.036.377.377,0,0,1-.2.1H1.455c.025-.013.013-.052.007-.073l0-.009A.127.127,0,0,1,1.353,2H1.337l-.028.018c-.022.014-.038.025-.038.03,0,.06-.091.1-.129.1a.087.087,0,0,0,.044-.057s0-.009,0-.011h0l-.009,0a.275.275,0,0,1-.1.042c-.057.014-.1.024-.1.131a.109.109,0,0,1-.03-.073c0-.015,0-.026-.011-.026S.9,2.18.9,2.187C.886,2.171.887,2.148.894,2.113h0a.008.008,0,0,0,0,0l-.006,0A.289.289,0,0,1,.8,2.12.178.178,0,0,1,.75,2.113s0,0,0,.008a.063.063,0,0,0-.022-.037A.168.168,0,0,1,.617,2.2a.1.1,0,0,0,.026-.115A.106.106,0,0,1,.6,2.128a.073.073,0,0,0-.033-.074s0,0,0,.008a.1.1,0,0,1-.093.1H.46c-.06,0-.074-.074-.076-.089a.006.006,0,0,0,0-.006H.37a.068.068,0,0,0-.018.047c0,.027-.009.058-.041.071l-.009,0a.1.1,0,0,0-.024-.005.1.1,0,0,0,.036.092ZM1.565,1a.019.019,0,0,1,.012,0c.005.005.007.01.006.014s-.011.011-.032.016l.01.008c.022.017.04.032.031.058s-.022.026-.048.026-.027.024-.037.044a.093.093,0,0,0-.007.07.052.052,0,0,0,.03.029.064.064,0,0,0,.029.007.069.069,0,0,0,.06-.048V1.216l0-.01c.006-.019.01-.034,0-.045a.037.037,0,0,1-.007-.055.028.028,0,0,1,.025-.014.1.1,0,0,1,.041.014c-.008-.023-.01-.039,0-.046a.013.013,0,0,1,.012-.006c.011,0,.017.017.022.031s.005.014.009.014h0c.011-.005.01-.014.009-.027a.106.106,0,0,1,0-.017c0-.014-.007-.021-.026-.029L1.589.965a.069.069,0,0,0-.02,0l-.017,0A.04.04,0,0,1,1.54.979l0,0C1.529.988,1.523.994,1.525,1a.007.007,0,0,0,.007,0l.012,0h0A.049.049,0,0,1,1.565,1Z" transform="translate(22.871 17.462)" fill="#fff"/>
    <path id="Fill_69" data-name="Fill 69" d="M.364,1.769h0a.132.132,0,0,1-.085-.051.1.1,0,0,1-.021-.086s0-.008.008-.008L.246,1.611A.062.062,0,0,1,.227,1.6.047.047,0,0,1,.2,1.563c0-.021.018-.044.04-.068a.29.29,0,0,0,.04-.051.03.03,0,0,0,0-.014h0s0,0,0,.006a.245.245,0,0,1-.116.047C.116,1.483.1,1.446.1,1.407L.091,1.391.079,1.366a.105.105,0,0,0-.07.056.065.065,0,0,1,0-.068.129.129,0,0,1,.1-.062H.12s.008,0,.008.008a.3.3,0,0,0,.04-.023A.071.071,0,0,1,.2,1.266c.02,0,.032.014.048.033a.214.214,0,0,0,.039.038.057.057,0,0,0,.04.018.05.05,0,0,0,.03-.01s0,0,0,0a.015.015,0,0,0-.012-.012C.247,1.293.228,1.255.225,1.24a.026.026,0,0,1,.006-.025A.09.09,0,0,0,.242,1.2.18.18,0,0,1,.256,1.17a.1.1,0,0,0-.069-.048l-.012,0A.077.077,0,0,1,.23,1.1a.108.108,0,0,1,.082.033H.36a.13.13,0,0,1,.07.052.223.223,0,0,1,.022.064.132.132,0,0,0,.015.043.111.111,0,0,0,.1.036.62.62,0,0,0,.252-.073A.58.58,0,0,1,1,1.238l.106,0h.024s0-.016-.012-.032a.267.267,0,0,1-.038-.144.048.048,0,0,1-.036.017.173.173,0,0,1-.086-.045A.435.435,0,0,0,.884.989.56.56,0,0,1,.749.874C.729.853.716.838.707.838A.022.022,0,0,0,.689.848a.04.04,0,0,0,0,.035C.644.883.629.844.629.809.629.8.629.786.622.786a.045.045,0,0,0-.03.037A.057.057,0,0,1,.559.771a.008.008,0,0,0-.006,0l-.012,0a.151.151,0,0,1-.08.023A.133.133,0,0,1,.342.728.125.125,0,0,1,.36.594a.093.093,0,0,0,.02.076A.081.081,0,0,0,.441.7.083.083,0,0,0,.522.617.032.032,0,0,0,.519.6.012.012,0,0,0,.507.594.078.078,0,0,1,.439.548a.1.1,0,0,1,.042-.1.014.014,0,0,0,0-.022A.045.045,0,0,0,.455.414.027.027,0,0,0,.442.408.009.009,0,0,0,.434.414.094.094,0,0,1,.386.433a.028.028,0,0,1-.016,0A.1.1,0,0,1,.347.408l0,0C.341.414.338.414.33.414.3.421.3.458.3.476A.083.083,0,0,1,.263.413.073.073,0,0,1,.293.355a.111.111,0,0,1,0-.035s0-.008,0-.01A.066.066,0,0,1,.365.252.176.176,0,0,1,.437.27H.449s0,0,0-.008a.044.044,0,0,0,0-.011.044.044,0,0,1,0-.011C.441.233.434.226.43.226A.113.113,0,0,1,.343.2.062.062,0,0,1,.33.148.219.219,0,0,1,.345.089C.337.073.307.067.293.067A.1.1,0,0,1,.364.032.061.061,0,0,1,.426.1a.023.023,0,0,1,0,.014.015.015,0,0,1,.011,0l.017,0h0C.5.111.524.189.539.24l0,.007,0,0s0,.005.007.005,0,0,0-.009L.563.218A.043.043,0,0,0,.559.2a.049.049,0,0,1,0-.078S.567.111.574.1L.592.082A.089.089,0,0,0,.552,0h0A.115.115,0,0,1,.663.082.317.317,0,0,1,.681.148.406.406,0,0,1,.662.253.523.523,0,0,0,.64.369C.633.46.634.5.725.55A.705.705,0,0,1,.872.675L.914.717.965.731a.068.068,0,0,1-.018,0,.071.071,0,0,0-.019,0A.064.064,0,0,0,.965.738H.991l.093.033c0-.043.007-.1.011-.169-.019,0-.041-.024-.07-.059.033-.005.052-.051.074-.1.011-.026.022-.052.036-.078C1.123.362,1.1.352,1.083.307l.01,0c.025,0,.052-.031.078-.062S1.22.188,1.242.188A.243.243,0,0,1,1.257.022l.028.01A.165.165,0,0,1,1.36.074c0-.037.044-.037.074-.037l.02,0A.573.573,0,0,1,1.512.022a.219.219,0,0,0,.047.015.57.57,0,0,1,.093.029A.543.543,0,0,1,1.775.15l.006.005c.007,0,.013.023.018.041a.106.106,0,0,0,.011.029L1.82.239c.016.023.029.042.013.067a.215.215,0,0,1,.114.048.139.139,0,0,1-.1.107C1.9.52,1.838.615,1.788.7c-.013.022-.026.043-.036.062A2.581,2.581,0,0,1,2.284.715c.315,0,.651.033.921.06.181.018.336.033.434.033.23,0,.572-.035.572-.13,0-.076-.07-.114-.45-.114-.086,0-.215.014-.364.03a6.218,6.218,0,0,1-.635.046A1.126,1.126,0,0,1,2.369.588a.215.215,0,0,1-.163-.2c0-.177.182-.2.379-.2.061,0,.125,0,.186.005A.1.1,0,0,1,2.808.155.448.448,0,0,1,3.054.1c.062,0,.126.006.182.012h.005c.06.006.117.011.171.011a.358.358,0,0,0,.2-.047C3.6.14,3.526.218,3.258.218a.837.837,0,0,0,.173.017A1.746,1.746,0,0,0,3.74.2h0a1.62,1.62,0,0,1,.29-.035.641.641,0,0,1,.4.135A.608.608,0,0,0,4.27.28a2.982,2.982,0,0,0-.434.049L3.8.335a3.594,3.594,0,0,1-.553.055A1.369,1.369,0,0,1,2.856.34a.166.166,0,0,1-.1-.056c-.064,0-.132-.008-.19-.008-.117,0-.237.013-.237.108s.133.133.418.133c.174,0,.377-.015.573-.03.17-.013.33-.025.448-.025.392,0,.591.078.591.233S3.942.93,3.642.93c.089.008.157.016.217.024a1.553,1.553,0,0,0,.193.017.676.676,0,0,0,.074,0l.025,0a.051.051,0,0,1,.055.042l0,.005a.039.039,0,0,0,.041.038A.122.122,0,0,0,4.333,1c.006.058-.006.1-.037.115a.018.018,0,0,0,0,.022.245.245,0,0,1,0,.03c0,.035,0,.071.053.071h.012a.049.049,0,0,1-.054.037H4.281v.008a.072.072,0,0,1,.048.066.087.087,0,0,1-.069.095c-.02.008-.038.014-.038.035s.013.026.027.038a.089.089,0,0,1,.035.114.416.416,0,0,1-.03.052c.007.019.037.034.052.041a.1.1,0,0,1-.054.017.076.076,0,0,1-.072-.05.084.084,0,0,0-.037-.008c-.044-.016-.03-.09-.019-.133a.009.009,0,0,0,0-.008h0l0,0a.113.113,0,0,0-.041.072c-.007.026-.012.046-.035.046H4.008c-.022.048-.019.062,0,.092a.1.1,0,0,1-.063-.1A.1.1,0,0,1,3.9,1.632a.03.03,0,0,1-.022-.024c0-.031.047-.077.081-.1a0,0,0,0,0,0-.005.011.011,0,0,0-.01-.005.007.007,0,0,0-.006,0,.094.094,0,0,1-.058.021.075.075,0,0,1-.075-.073.131.131,0,0,1,0-.022.173.173,0,0,0-.092.051.123.123,0,0,1,.1-.114.082.082,0,0,1,.063-.029l.049.008A.434.434,0,0,0,4,1.355c.023,0,.037-.006.044-.018a.1.1,0,0,0,.006-.057.274.274,0,0,1,.009-.109c.007-.038-.017-.045-.041-.052l-.028,0a.481.481,0,0,0-.085-.009.231.231,0,0,0-.128.035l0,0a.507.507,0,0,1-.347.086.684.684,0,0,1-.24-.053l-.037-.013a.129.129,0,0,1,.022.089c0,.024,0,.044.022.054a.2.2,0,0,1,.066.218c-.009.018-.045.028-.1.028a.444.444,0,0,1-.105-.013H3.007c-.035.009-.035.033-.036.059a.068.068,0,0,1-.053.078.087.087,0,0,1-.026,0,.1.1,0,0,1-.084-.048c0-.007-.007-.015-.026-.015a.068.068,0,0,1-.037.007s-.007,0-.007.008a.108.108,0,0,1-.018.059.152.152,0,0,0-.041.011c.007.03.059.037.077.037a.11.11,0,0,1-.066.024.085.085,0,0,1-.064-.029.066.066,0,0,1-.017-.051c-.007,0-.014-.036-.014-.044a.049.049,0,0,1,0-.02.026.026,0,0,0,0-.009c0-.007,0-.015-.011-.015s0,0,0,.008-.011.022-.022.022H2.527c0,.023.028.045.041.052a.172.172,0,0,1-.037,0,.077.077,0,0,1-.061-.024.057.057,0,0,1-.012-.047A.107.107,0,0,1,2.441,1.5c.017-.023.052-.024.083-.025s.054,0,.054-.021-.007-.015-.019-.015a.066.066,0,0,0-.03.007.065.065,0,0,1-.029.007.056.056,0,0,1-.044-.014A.045.045,0,0,1,2.45,1.4V1.374a.139.139,0,0,0-.089.056.088.088,0,0,1,.021-.074.14.14,0,0,1,.1-.055.1.1,0,0,1,.037-.023.093.093,0,0,1,.038-.009c.043,0,.071.037.1.082l0,0c.027.039.052.076.089.076a.083.083,0,0,0,.046-.017.489.489,0,0,1,.118-.026l.006-.005s0,0,0,0,0,0,0-.005a.262.262,0,0,0-.147-.059.07.07,0,0,1-.052-.045.276.276,0,0,1,.019-.22.369.369,0,0,1-.151.07,1.144,1.144,0,0,0-.2-.022.285.285,0,0,0-.273.128L2.1,1.237a.222.222,0,0,1-.212.117l-.05,0c-.018,0-.054,0-.1.011l-.033,0a.516.516,0,0,1-.348.261.134.134,0,0,1-.028,0,.087.087,0,0,0,.048-.066s0-.007,0-.009h0l-.009,0a.317.317,0,0,1-.117.044c-.068.015-.117.025-.127.159a.146.146,0,0,1-.035-.094c0-.016,0-.027-.01-.027s-.033.029-.033.037a.1.1,0,0,1,0-.074.014.014,0,0,0,0-.009h0l-.006,0A.45.45,0,0,1,.95,1.6a.2.2,0,0,1-.066-.009A.007.007,0,0,0,.877,1.6a.094.094,0,0,0-.033-.044.209.209,0,0,1-.107.126l-.011.007a.129.129,0,0,0,.026-.14A.094.094,0,0,1,.692,1.6a.063.063,0,0,0-.037-.078s0,0,0,0a.009.009,0,0,0,0,.01.106.106,0,0,1-.1.107H.54c-.068,0-.084-.063-.088-.1a.01.01,0,0,0-.01-.01.015.015,0,0,0-.009,0c-.014.008-.017.025-.02.046a.094.094,0,0,1-.053.083.159.159,0,0,0-.037-.007.156.156,0,0,0,.04.114ZM1.4.41a.026.026,0,0,1,.015,0,.023.023,0,0,1,0,.023c0,.01-.017.017-.037.022L1.4.464c.026.016.052.031.039.065s-.028.037-.056.037S1.354.584,1.344.6L1.338.617a.092.092,0,0,0-.009.07.058.058,0,0,0,.035.036A.056.056,0,0,0,1.4.734.083.083,0,0,0,1.464.679l0-.006C1.478.643,1.489.617,1.479.6,1.453.58,1.445.566,1.464.536A.032.032,0,0,1,1.492.518a.132.132,0,0,1,.049.016l0,0C1.534.508,1.532.491,1.538.483A.016.016,0,0,1,1.552.476c.014,0,.019.021.024.034s.006.019.01.019h0C1.6.523,1.6.512,1.6.5a.128.128,0,0,1,0-.021c0-.014-.006-.018-.016-.024L1.57.443,1.431.377A.069.069,0,0,0,1.407.371a.047.047,0,0,0-.021.005.051.051,0,0,1-.014.015C1.364.4,1.358.406,1.36.414a.007.007,0,0,0,.007,0,.059.059,0,0,0,.017,0A.074.074,0,0,1,1.4.41Zm.2-.1a.134.134,0,0,0,.025.1.05.05,0,0,0,.037.019A.056.056,0,0,0,1.71.414.133.133,0,0,1,1.781.384.623.623,0,0,1,1.6.31ZM1.353.167h0a.155.155,0,0,1,.021.081A.053.053,0,0,0,1.39.292.057.057,0,0,0,1.431.31.09.09,0,0,0,1.5.262.633.633,0,0,1,1.353.167Z" transform="translate(21.928 19.955)" fill="#fff"/>
    <path id="Fill_71" data-name="Fill 71" d="M3.088,1.718a.084.084,0,0,1-.064-.028.051.051,0,0,1-.013-.041A.132.132,0,0,1,3,1.6a.027.027,0,0,1,0-.01.051.051,0,0,0,0-.02c0-.005,0-.007-.006-.01l-.006,0s0,0,0,0,0,0,0,0a.045.045,0,0,1-.015.03.09.09,0,0,1-.041-.008c0,.021.023.043.041.052a.143.143,0,0,1-.038.006.067.067,0,0,1-.053-.022.062.062,0,0,1-.012-.051.126.126,0,0,1-.026-.033.086.086,0,0,1,.008-.071.1.1,0,0,1,.076-.025c.026,0,.049,0,.049-.022s0-.015-.011-.015a.056.056,0,0,0-.027.007.065.065,0,0,1-.032.008A.048.048,0,0,1,2.865,1.4a.033.033,0,0,1-.006-.027v-.03a.16.16,0,0,0-.089.048.078.078,0,0,1,.02-.063.139.139,0,0,1,.1-.051L2.9,1.268c.009-.01.016-.018.018-.018a.1.1,0,0,1,.032-.006c.047,0,.077.045.1.08l0,0c.026.039.051.076.09.076a.087.087,0,0,0,.044-.014.245.245,0,0,1,.1-.027l.014,0a.011.011,0,0,0,.01-.006.008.008,0,0,0,0-.009.326.326,0,0,0-.14-.059.076.076,0,0,1-.058-.047.205.205,0,0,1,.021-.175l-.02.013a.116.116,0,0,1-.073.028C2.97,1.1,2.908,1.1,2.854,1.1a.542.542,0,0,0-.41.123l-.013.011a.4.4,0,0,1-.318.113,1.46,1.46,0,0,1-.177-.012l-.009,0c-.014,0-.022.011-.033.025l-.012.015a.11.11,0,0,1-.092.04H1.782a.008.008,0,0,0,0-.007.153.153,0,0,1-.03.007.2.2,0,0,0-.032.008c0,.008,0,.016-.005.023a.177.177,0,0,0-.006.035l-.192.085,0,0v0a.248.248,0,0,1-.13.052H1.379a.111.111,0,0,0,.055-.062s0-.007,0-.008-.008,0-.013.008a.362.362,0,0,1-.157.033c-.1.006-.19.012-.2.129a.13.13,0,0,1-.025-.08c0-.02,0-.035-.012-.035S1,1.62,1,1.627a.14.14,0,0,1-.011-.074.009.009,0,0,0,0-.008h0a.532.532,0,0,1-.094.011.129.129,0,0,1-.058-.011c0,.007,0,.007,0,.007A.075.075,0,0,0,.8,1.52a.172.172,0,0,1-.118.122.114.114,0,0,0,.029-.13.084.084,0,0,1-.052.048c.006-.028-.007-.051-.041-.07,0,0,0,0,0,0s0,0,0,0A.09.09,0,0,1,.6,1.559.1.1,0,0,1,.523,1.6H.512c-.07,0-.079-.07-.082-.093a.012.012,0,0,0,0-.007.009.009,0,0,0-.007,0l-.009,0a.072.072,0,0,0-.021.049c-.005.028-.011.06-.045.073l-.013,0L.3,1.6a.106.106,0,0,0,.044.107H.34a.106.106,0,0,1-.075-.039A.093.093,0,0,1,.242,1.6a.014.014,0,0,1,0-.007.015.015,0,0,0,0-.008A.055.055,0,0,0,.216,1.56a.045.045,0,0,1-.025-.03c0-.021.017-.044.038-.069a.276.276,0,0,0,.039-.053s0-.007,0-.009h0l-.009,0a.215.215,0,0,1-.108.047c-.04,0-.052-.037-.058-.073a.068.068,0,0,0,0-.018.207.207,0,0,1-.006-.02.1.1,0,0,0-.07.056.067.067,0,0,1,0-.07A.107.107,0,0,1,.094,1.27l.014,0H.124l.021-.013A.059.059,0,0,1,.161,1.25a.069.069,0,0,1,.027-.006c.022,0,.034.015.05.035a.222.222,0,0,0,.037.038.065.065,0,0,0,.036.011.042.042,0,0,0,.03-.011s0,0,0,0A.015.015,0,0,0,.334,1.3C.247,1.27.222,1.241.216,1.223a.031.031,0,0,1,0-.028.17.17,0,0,1,.022-.037A.11.11,0,0,0,.164,1.1a.105.105,0,0,1,.05-.011.1.1,0,0,1,.08.033H.345c.018,0,.044.021.063.052a.181.181,0,0,1,.022.058.135.135,0,0,0,.011.034.118.118,0,0,0,.1.038A.494.494,0,0,0,.77,1.232a.981.981,0,0,1,.237-.016h.119a.128.128,0,0,0-.013-.05.558.558,0,0,1-.033-.123c-.022-.018-.033-.03-.033-.037a.1.1,0,0,1-.076.04l-.02,0A.787.787,0,0,1,.708.833C.69.81.679.8.673.8A.018.018,0,0,0,.658.8a.05.05,0,0,0,0,.044A.076.076,0,0,1,.6.77C.6.763.6.755.592.755.571.755.567.769.567.774A.047.047,0,0,1,.526.741C.523.735.521.73.518.73s0,0,0,0A.157.157,0,0,1,.44.753.14.14,0,0,1,.318.687.124.124,0,0,1,.326.56a.112.112,0,0,0,.03.078A.085.085,0,0,0,.416.664.071.071,0,0,0,.485.589c0-.015,0-.022-.015-.022A.078.078,0,0,1,.4.518.09.09,0,0,1,.441.431a.027.027,0,0,0,0-.023A.038.038,0,0,0,.428.4.038.038,0,0,1,.415.394.026.026,0,0,0,.4.388.024.024,0,0,0,.389.394.087.087,0,0,1,.334.416S.329.408.323.4A.083.083,0,0,1,.3.386C.3.394.3.394.293.394.274.4.274.43.275.447V.452A.079.079,0,0,1,.228.391.068.068,0,0,1,.256.335a.059.059,0,0,1,0-.025S.256.3.256.3A.062.062,0,0,1,.325.24.174.174,0,0,1,.393.257S.4.262.4.262.4.256.4.25A.053.053,0,0,0,.393.227C.389.22.386.22.374.22.313.213.275.2.279.143A.441.441,0,0,1,.29.084C.285.074.273.071.262.068A.063.063,0,0,1,.245.061.087.087,0,0,1,.307.03.064.064,0,0,1,.367.1V.106H.4C.441.113.468.185.489.242a.006.006,0,0,0,0,0h0A.009.009,0,0,0,.5.242.194.194,0,0,0,.5.205.023.023,0,0,0,.5.19.056.056,0,0,1,.48.149.04.04,0,0,1,.5.12.13.13,0,0,1,.53.076.1.1,0,0,0,.486,0,.024.024,0,0,1,.5,0,.113.113,0,0,1,.6.076C.6.087.6.1.605.115A.2.2,0,0,1,.611.143.32.32,0,0,1,.6.246a.478.478,0,0,0-.015.1c0,.089,0,.122.089.173a.617.617,0,0,1,.12.1C.832.668.863.7.9.7a.289.289,0,0,1,.041,0l.029,0a.14.14,0,0,0,.066.008l.041.015A.805.805,0,0,1,1.091.6.174.174,0,0,1,1.05.56c.032-.005.049-.048.069-.1A.667.667,0,0,1,1.154.386c-.017,0-.031-.02-.044-.059l.011,0c.021,0,.043-.026.067-.054S1.234.22,1.257.22A.186.186,0,0,1,1.272.069a.13.13,0,0,1,.093.044c.007-.037.047-.037.074-.037l.006,0a.161.161,0,0,0,.028,0A.169.169,0,0,1,1.506.067l.009,0L1.54.075a.387.387,0,0,1,.1.031A.875.875,0,0,1,1.747.17l.019.013A.209.209,0,0,1,1.775.21c.006.021.013.048.021.048.018.022.037.051.022.07a.243.243,0,0,1,.1.052.138.138,0,0,1-.092.107c.045.052-.008.14-.054.218A.642.642,0,0,0,1.73.789,2.526,2.526,0,0,1,2.412.72c.381,0,.814.036,1.131.062.2.016.351.029.435.029.192,0,.554-.027.554-.129,0-.062-.072-.1-.429-.1-.075,0-.2.011-.354.025-.234.021-.524.046-.786.046A1.777,1.777,0,0,1,2.479.6c-.135-.04-.2-.105-.2-.194,0-.171.237-.194.493-.194l.2,0,.2,0A.183.183,0,0,0,3.2.19.443.443,0,0,1,3.44.141c.082,0,.172.009.252.017h0c.086.009.168.017.241.017a.356.356,0,0,0,.2-.041c-.012.072-.265.115-.5.115a.768.768,0,0,0,.156.015A1.748,1.748,0,0,0,4.11.225l.011,0A1.615,1.615,0,0,1,4.413.186a.455.455,0,0,1,.329.123.61.61,0,0,0-.2-.03,2.247,2.247,0,0,0-.449.067L4.066.351a2.524,2.524,0,0,1-.53.073A1.087,1.087,0,0,1,3.244.386.13.13,0,0,1,3.155.32c-.06,0-.125,0-.188-.007C2.879.308,2.789.3,2.708.3c-.146,0-.314.012-.314.1s.179.127.548.127c.229,0,.493-.015.726-.029.182-.011.338-.02.443-.02.383,0,.561.067.561.21,0,.166-.478.213-.683.225.095.007.166.017.224.025a1.122,1.122,0,0,0,.152.015A.453.453,0,0,0,4.443.955l.024,0a.058.058,0,0,1,.062.042s0,0,0,0c0,.035.023.043.039.043A.105.105,0,0,0,4.646,1a.111.111,0,0,1-.037.107h0s0,0,0,.01,0,.007,0,.011a.142.142,0,0,1,0,.032c0,.032,0,.065.051.065h.011c-.011.024-.032.027-.053.029l-.024,0a.094.094,0,0,1,.052.066.082.082,0,0,1-.063.087c-.022.009-.04.017-.04.042s.01.021.022.031a.088.088,0,0,1,.03.113.1.1,0,0,1-.026.044.071.071,0,0,0,.052.037.1.1,0,0,1-.05.015.066.066,0,0,1-.064-.045.158.158,0,0,1-.037-.007c-.041-.015-.033-.081-.018-.122a.008.008,0,0,0,0-.006s-.005,0-.01,0a.1.1,0,0,0-.034.067c-.006.026-.011.048-.032.048H4.34c-.021.043-.019.059,0,.078a.084.084,0,0,1-.062-.093L4.24,1.6a.037.037,0,0,1-.024-.028c0-.029.037-.066.072-.094a.005.005,0,0,0,0-.006.01.01,0,0,0-.009,0,.01.01,0,0,0-.007,0,.069.069,0,0,1-.051.023.076.076,0,0,1-.075-.074s0-.008,0-.015a.12.12,0,0,0-.063.03.13.13,0,0,1-.023.015.119.119,0,0,1,.1-.107.077.077,0,0,1,.063-.029l.042.008a.406.406,0,0,0,.074.011c.023,0,.037-.006.043-.018a.092.092,0,0,0,.006-.058.244.244,0,0,1,.005-.1c.006-.024-.007-.042-.037-.052l-.026,0a.6.6,0,0,0-.065,0,.269.269,0,0,0-.142.036.5.5,0,0,1-.328.081.608.608,0,0,1-.227-.052l-.039-.015a.126.126,0,0,1,.02.084c0,.025,0,.045.025.06a.191.191,0,0,1,.067.2c-.011.018-.057.029-.117.029a.394.394,0,0,1-.079-.008.073.073,0,0,0-.029-.005.052.052,0,0,0-.026.005c-.031.007-.033.028-.034.051a.066.066,0,0,1-.048.071.118.118,0,0,1-.032,0A.067.067,0,0,1,3.2,1.59a.017.017,0,0,0-.015-.011l-.011,0H3.144c-.008,0-.011,0-.015.015a.067.067,0,0,1-.014.052.165.165,0,0,0-.041.015c.006.02.048.028.071.032h.006A.113.113,0,0,1,3.088,1.718ZM1.4.447A.035.035,0,0,1,1.42.452a.012.012,0,0,1,.005.011c0,.009-.018.018-.043.023l.012.007c.029.018.053.034.04.066s-.022.029-.059.029c-.011,0-.021.019-.033.039l0,.008a.082.082,0,0,0,.026.111A.06.06,0,0,0,1.39.754.084.084,0,0,0,1.46.7c.013-.037.017-.06.011-.067A.043.043,0,0,1,1.46.567.028.028,0,0,1,1.488.549a.117.117,0,0,1,.033.007l.013,0C1.526.538,1.524.522,1.528.516a.005.005,0,0,1,0,0l.005,0c.02,0,.027.017.032.03s.007.014.012.014S1.591.532,1.59.524v0a.017.017,0,0,0,0,0,.049.049,0,0,0-.02-.04L1.563.471,1.43.416h0A.065.065,0,0,0,1.4.407a.026.026,0,0,0-.019.009l0,0c-.006.006-.021.02-.018.033s0,0,0,0l.011,0h0A.091.091,0,0,1,1.4.447Z" transform="translate(21.42 21.885)" fill="#fff"/>
    <path id="Fill_73" data-name="Fill 73" d="M2.9,1.715a.082.082,0,0,1-.06-.026.063.063,0,0,1-.018-.047A.238.238,0,0,1,2.815,1.6a.026.026,0,0,1,0-.021.019.019,0,0,0,0-.009.014.014,0,0,0-.015-.015c-.008,0-.011,0-.011.007s-.01.023-.018.023a.053.053,0,0,1-.03-.008c-.007.022.02.045.034.052a.121.121,0,0,1-.044.009.057.057,0,0,1-.059-.069.169.169,0,0,1-.02-.039l0-.006a.076.076,0,0,1,.005-.065c.016-.02.047-.021.076-.021s.052,0,.052-.021A.017.017,0,0,0,2.771,1.4a.036.036,0,0,0-.017.006.059.059,0,0,1-.031.009c-.046,0-.052-.024-.052-.044V1.347a.11.11,0,0,0-.085.048.088.088,0,0,1,.023-.071.13.13,0,0,1,.092-.05l.019-.016.018-.014a.088.088,0,0,1,.03-.006c.046,0,.075.046.1.082l0,0c.026.04.05.078.087.078A.081.081,0,0,0,3,1.387a.237.237,0,0,1,.118-.033.008.008,0,0,0,.006-.005.009.009,0,0,0,0-.01.345.345,0,0,0-.14-.052.081.081,0,0,1-.053-.05.274.274,0,0,1,.013-.209.34.34,0,0,0-.028.032c-.019.024-.036.045-.061.045-.072-.007-.137-.01-.195-.01a.526.526,0,0,0-.4.121l-.012.01a.4.4,0,0,1-.313.111,1.43,1.43,0,0,1-.186-.014h0c-.016,0-.025.013-.035.029L1.7,1.367a.1.1,0,0,1-.091.043H1.6c-.057.007-.122.014-.122.029,0,.059-.127.151-.191.151a.033.033,0,0,1-.023-.007.1.1,0,0,0,.052-.059c0-.008,0-.012,0-.013a.022.022,0,0,0-.013.006.319.319,0,0,1-.112.04c-.065.014-.112.024-.125.148a.14.14,0,0,1-.028-.083c0-.018,0-.031-.013-.031s-.029.029-.029.037a.083.083,0,0,1-.007-.074s0-.008,0-.009h0l-.007,0A.387.387,0,0,1,.9,1.555a.221.221,0,0,1-.066-.008s-.006.005-.007.007A.069.069,0,0,0,.8,1.509a.2.2,0,0,1-.118.133.133.133,0,0,0,.029-.136.183.183,0,0,1-.052.055.074.074,0,0,0-.037-.077c-.008,0-.011,0-.011.008a.073.073,0,0,1-.015.06.094.094,0,0,1-.078.039H.508C.445,1.591.43,1.533.427,1.5c0,0-.005-.01-.009-.01a.008.008,0,0,0-.006,0C.4,1.5.391,1.52.387,1.541S.374,1.6.341,1.613a.01.01,0,0,1-.008,0,.086.086,0,0,1-.027-.008l-.006,0a.125.125,0,0,0,.048.107H.341a.11.11,0,0,1-.077-.041.1.1,0,0,1-.025-.082.039.039,0,0,1,0-.015L.232,1.57c-.01-.005-.02-.011-.02-.016a.047.047,0,0,1-.024-.031c0-.021.016-.043.037-.066A.228.228,0,0,0,.26,1.41S.266,1.4.265,1.4h0l-.009,0a.229.229,0,0,1-.108.044c-.04,0-.051-.035-.058-.074a.145.145,0,0,1-.009-.03l0-.01A.087.087,0,0,0,.009,1.4a.07.07,0,0,1,0-.073A.114.114,0,0,1,.1,1.265H.12l.017-.007.02-.008a.07.07,0,0,1,.031-.009c.02,0,.033.014.048.033a.233.233,0,0,0,.035.035.057.057,0,0,0,.038.015.087.087,0,0,0,.032-.007s0,0,0-.007S.335,1.3.33,1.3c-.064-.023-.1-.049-.114-.077a.046.046,0,0,1,0-.037.176.176,0,0,0,.019-.037A.1.1,0,0,0,.164,1.1a.081.081,0,0,1,.048-.013.127.127,0,0,1,.081.028H.341A.1.1,0,0,1,.4,1.166a.2.2,0,0,1,.025.059.153.153,0,0,0,.016.041A.106.106,0,0,0,.532,1.3.565.565,0,0,0,.77,1.229a.236.236,0,0,1,.1-.015c.041,0,.084,0,.112.006l.03,0s0-.007-.011-.019a.213.213,0,0,1-.059-.147l-.026.022A.113.113,0,0,1,.858,1a.459.459,0,0,1-.048.025c-.028.014-.058.028-.055.037A.665.665,0,0,1,.528.844C.507.816.494.8.485.8A.015.015,0,0,0,.473.8a.047.047,0,0,0,0,.039C.436.836.417.811.412.768a.072.072,0,0,0,0-.014C.41.748.407.745.4.745S.378.767.378.773h0v0C.36.775.35.754.341.734c0,0,0-.005-.006-.005s0,0-.009.005A.164.164,0,0,1,.25.753.136.136,0,0,1,.13.69.124.124,0,0,1,.142.561.1.1,0,0,0,.169.634.086.086,0,0,0,.23.661.073.073,0,0,0,.3.583.013.013,0,0,0,.286.568.079.079,0,0,1,.219.52a.1.1,0,0,1,.037-.1c0-.008,0-.008,0-.015A.114.114,0,0,1,.228.388H.208A.148.148,0,0,1,.157.412a.009.009,0,0,1-.007,0A.09.09,0,0,1,.127.391l0,0H.113C.085.4.088.434.09.45A.083.083,0,0,1,.044.384.058.058,0,0,1,.068.336.123.123,0,0,1,.068.3.061.061,0,0,1,.137.239.174.174,0,0,1,.208.258s0,0,0,0a.005.005,0,0,0,0,0,.069.069,0,0,1,0-.023C.208.218.2.213.19.213A.106.106,0,0,1,.11.189.072.072,0,0,1,.094.132.309.309,0,0,1,.109.084.075.075,0,0,0,.057.062.092.092,0,0,1,.121.029.061.061,0,0,1,.179.092C.179.1.176.1.175.1A.108.108,0,0,1,.2.1l.008,0C.258.107.287.188.3.236A.013.013,0,0,0,.3.244h0s0,0,0-.008A.082.082,0,0,0,.315.2.024.024,0,0,0,.308.184a.056.056,0,0,1,0-.07A.1.1,0,0,0,.325.094L.341.077A.1.1,0,0,0,.3,0,.034.034,0,0,1,.314,0,.112.112,0,0,1,.408.077.368.368,0,0,1,.43.14a.373.373,0,0,1-.014.1A.44.44,0,0,0,.4.343C.4.429.4.472.485.516A.642.642,0,0,1,.613.624c.038.039.069.07.1.074L.746.7A.156.156,0,0,1,.781.712H.847L.921.738A.661.661,0,0,1,.927.666c0-.017,0-.034.005-.051A.238.238,0,0,1,.862.553C.894.553.913.511.934.463A.609.609,0,0,1,.973.387C.953.379.938.363.921.328H.93C.954.329.978.3,1,.275s.047-.054.072-.054A.185.185,0,0,1,1.083.07a.154.154,0,0,1,.1.037c0-.029.041-.029.07-.029l.009,0A.293.293,0,0,1,1.314.068l.013,0A.255.255,0,0,1,1.453.1a.4.4,0,0,1,.126.085c.009,0,.015.028.02.046a.086.086,0,0,0,.01.027c.02.02.04.049.022.07A.222.222,0,0,1,1.737.38a.131.131,0,0,1-.093.107c.043.051,0,.13-.051.206a.593.593,0,0,0-.052.1,2.6,2.6,0,0,1,.707-.07c.375,0,.8.033,1.111.057.2.015.352.027.439.027S4.351.8,4.351.683c0-.065-.074-.107-.436-.107-.075,0-.2.011-.354.025-.233.021-.523.046-.785.046A1.77,1.77,0,0,1,2.294.6c-.135-.04-.2-.105-.2-.194,0-.167.255-.189.5-.189.079,0,.161,0,.241,0l.14,0A.1.1,0,0,1,3.015.192a.453.453,0,0,1,.241-.05c.08,0,.169.009.248.016h0c.085.008.166.016.239.016a.367.367,0,0,0,.2-.043C3.937.2,3.672.251,3.443.251a.845.845,0,0,0,.173.018A1.561,1.561,0,0,0,3.944.224h0A1.575,1.575,0,0,1,4.269.18a.817.817,0,0,1,.278.048A.407.407,0,0,0,4.424.211,1.887,1.887,0,0,0,3.97.3L3.922.314a2.3,2.3,0,0,1-.592.1A.956.956,0,0,1,3.059.38C3.013.365,2.982.351,2.97.321,2.9.319,2.832.315,2.762.312,2.671.307,2.578.3,2.5.3,2.3.3,2.21.332,2.21.4c0,.089.184.133.562.133.228,0,.489-.015.719-.029C3.668.5,3.82.487,3.923.487c.386,0,.565.067.565.211S4.024.887,3.8.9c-.01,0-.015.006-.016.009s.007.009.016.013c.1.006.17.013.236.02A1.815,1.815,0,0,0,4.22.96a.606.606,0,0,0,.072,0l.026,0c.054,0,.056.042.056.047,0,.031.018.038.033.038A.131.131,0,0,0,4.491.993a.131.131,0,0,1-.044.114c-.007,0-.007.008-.007.015a.18.18,0,0,1,0,.034.073.073,0,0,0,.011.054.051.051,0,0,0,.039.012H4.5a.065.065,0,0,1-.06.03H4.418s0,.006,0,.007h0a.066.066,0,0,1,.037.067.089.089,0,0,1-.067.084c-.021.009-.038.016-.04.038s.008.022.02.033a.084.084,0,0,1,.021.111.073.073,0,0,1-.012.023.312.312,0,0,0-.017.029c0,.013.021.023.037.03l.007,0a.117.117,0,0,1-.052.014.065.065,0,0,1-.066-.047.111.111,0,0,1-.029-.007.04.04,0,0,1-.024-.021.159.159,0,0,1,.013-.105v0H4.24a.1.1,0,0,0-.04.063c-.009.027-.017.051-.042.051H4.126a.09.09,0,0,0-.011.085.092.092,0,0,1-.056-.092L4.03,1.591c-.012,0-.019-.011-.021-.02,0-.027.045-.066.074-.09l.005,0a.012.012,0,0,0,0-.013.009.009,0,0,0-.008,0,.006.006,0,0,0-.005,0,.083.083,0,0,1-.056.023.066.066,0,0,1-.046-.018.067.067,0,0,1-.02-.05V1.4a.181.181,0,0,0-.065.029.147.147,0,0,1-.027.015c0-.049.058-.091.11-.107l.006,0a.075.075,0,0,1,.044-.019h.01a.451.451,0,0,1,.059.006.444.444,0,0,0,.057.006A.056.056,0,0,0,4.2,1.3a.1.1,0,0,0,.007-.049.291.291,0,0,1,.012-.1c.011-.038-.009-.045-.026-.051l-.03,0A.449.449,0,0,0,4.09,1.09a.245.245,0,0,0-.137.04.585.585,0,0,1-.347.07.718.718,0,0,1-.262-.055.118.118,0,0,1,.019.079c0,.025,0,.046.022.058a.168.168,0,0,1,.067.1.158.158,0,0,1,0,.1c-.014.025-.074.029-.109.029a.586.586,0,0,1-.083-.006.051.051,0,0,0-.019,0l-.021,0-.016,0c-.033,0-.034.026-.035.05a.064.064,0,0,1-.046.072.1.1,0,0,1-.037.008.078.078,0,0,1-.07-.045l0-.005a.022.022,0,0,0-.022-.01H2.952s-.011,0-.011.015-.005.046-.014.052a.191.191,0,0,0-.037.015c.007.024.046.033.078.033A.11.11,0,0,1,2.9,1.715ZM1.194.568c-.015,0-.025.017-.037.038l-.01.017a.078.078,0,0,0,.033.1.058.058,0,0,0,.025.005.086.086,0,0,0,.071-.05.136.136,0,0,0,.01-.067c-.025-.029-.029-.041-.01-.07A.022.022,0,0,1,1.3.529a.132.132,0,0,1,.048.015l0,0C1.339.518,1.337.507,1.341.5A.018.018,0,0,1,1.357.494c.011,0,.017.017.022.029s.007.016.012.016h0l.006,0c0-.005,0-.017,0-.029S1.4.5,1.4.494,1.394.475,1.383.464L1.375.457,1.242.394A.063.063,0,0,0,1.219.389.048.048,0,0,0,1.2.394a.045.045,0,0,1-.012.014l0,0c-.006.006-.012.011-.008.017s0,.008.007.008l.012,0,0,0a.048.048,0,0,1,.018,0l.009,0A.022.022,0,0,1,1.234.45c0,.014-.028.02-.036.022l.006,0,0,0,0,0c.024.017.044.032.035.057s-.019.032-.035.032l-.017,0ZM1.409.336A.11.11,0,0,0,1.422.42a.064.064,0,0,0,.045.03A.049.049,0,0,0,1.506.434.119.119,0,0,1,1.575.4.929.929,0,0,1,1.409.336Z" transform="translate(27.638 24.705)" fill="#fff"/>
    <path id="Fill_75" data-name="Fill 75" d="M.327,1.569h0a.119.119,0,0,1-.076-.04.1.1,0,0,1-.026-.074A.036.036,0,0,0,.235,1.44a.08.08,0,0,1-.03-.023.039.039,0,0,1-.023-.025c0-.02.015-.044.036-.07a.37.37,0,0,0,.035-.049s0,0,0,0,0,0,0,0l-.006,0a.217.217,0,0,1-.108.05C.1,1.316.09,1.282.084,1.244a.088.088,0,0,0-.011-.033.075.075,0,0,0-.063.048.058.058,0,0,1,0-.062A.121.121,0,0,1,.1,1.138a.008.008,0,0,1,.007,0s0,0,0,0L.13,1.138.153,1.13a.056.056,0,0,1,.031-.013c.017,0,.028.015.043.033a.3.3,0,0,0,.034.038A.059.059,0,0,0,.3,1.2a.071.071,0,0,0,.025,0c.005-.005,0-.01,0-.015l0-.007C.23,1.141.206,1.113.2,1.1a.023.023,0,0,1,0-.021l0-.008a.108.108,0,0,1,.015-.029A.073.073,0,0,0,.153.986.1.1,0,0,1,.208.971.086.086,0,0,1,.279,1H.327a.174.174,0,0,1,.063.052A.133.133,0,0,1,.408,1.1a.086.086,0,0,0,.015.037.1.1,0,0,0,.09.038.505.505,0,0,0,.22-.068.271.271,0,0,1,.1-.014c.037,0,.076,0,.1,0l.029,0h0a.183.183,0,0,0,0-.067.629.629,0,0,1,0-.123l-.1.014A.093.093,0,0,1,.818.871.262.262,0,0,0,.705.826a.044.044,0,0,0-.029.01A.022.022,0,0,1,.663.842.013.013,0,0,0,.653.848a.056.056,0,0,0,0,.046C.618.888.6.86.593.812c0,0,0-.005,0-.006H.586C.57.805.567.821.567.827.544.827.534.8.526.782h0l0,0s0,0,0,0A.145.145,0,0,1,.44.8.125.125,0,0,1,.33.744.119.119,0,0,1,.338.62.094.094,0,0,0,.362.693.077.077,0,0,0,.418.718C.448.718.484.7.486.639.486.632.486.624.475.62A.068.068,0,0,1,.413.585a.1.1,0,0,1,.033-.1,0,0,0,0,0,0,0,.011.011,0,0,0,0-.012l-.009,0C.429.469.422.467.42.462A.014.014,0,0,0,.4.462.1.1,0,0,1,.354.477a.018.018,0,0,1-.013,0A.035.035,0,0,1,.32.454l-.007,0-.007,0C.286.468.286.489.287.5V.51A.069.069,0,0,1,.246.457.053.053,0,0,1,.268.41a.154.154,0,0,1,0-.044C.267.334.292.315.33.315A.2.2,0,0,1,.4.329c.006,0,.01,0,.012,0s0,0,0-.005L.4.313A.064.064,0,0,0,.4.3C.4.3.4.3.386.3A.1.1,0,0,1,.307.27.073.073,0,0,1,.29.214.19.19,0,0,1,.305.162.061.061,0,0,0,.28.152.044.044,0,0,1,.261.144.082.082,0,0,1,.318.114.058.058,0,0,1,.371.178V.185a.023.023,0,0,1,.013,0L.4.184h0c.04,0,.062.061.08.111L.49.31a.006.006,0,0,0,0,0l0,0S.5.314.5.31A.082.082,0,0,1,.5.29.044.044,0,0,0,.5.281C.5.273.5.273.5.266.471.244.482.214.5.192S.512.169.526.159A.077.077,0,0,0,.482.093.043.043,0,0,1,.5.089.119.119,0,0,1,.593.159l0,.01A.278.278,0,0,1,.611.214.363.363,0,0,1,.6.32a.4.4,0,0,0-.015.1c0,.076,0,.122.081.166A.387.387,0,0,0,.84.636l.033,0H.892L.94.661A.557.557,0,0,1,.966.51L.951.5A.227.227,0,0,1,.925.469C.953.464.97.426.989.382A.6.6,0,0,1,1.029.3C1.011.3.994.284.981.251H.989c.022,0,.044-.027.066-.054S1.1.144,1.121.144A.189.189,0,0,1,1.135,0a.149.149,0,0,1,.093.033C1.232,0,1.265,0,1.294,0L1.33,0l.034,0,.014,0A.33.33,0,0,1,1.49.033.314.314,0,0,1,1.6.114c.008,0,.015.024.021.04s.009.024.012.024l0,.005c.014.02.028.041.015.068a.265.265,0,0,1,.1.044A.155.155,0,0,1,1.671.4c.041.046-.008.128-.051.2-.012.021-.024.04-.033.058A2.426,2.426,0,0,1,2.057.623c.289,0,.6.03.845.054.16.015.3.029.382.029.188,0,.576-.028.576-.114,0-.007,0-.014,0-.02a.062.062,0,0,0-.01-.05C3.827.5,3.751.487,3.561.487c-.077,0-.193.012-.326.026a5.646,5.646,0,0,1-.573.041A1.029,1.029,0,0,1,2.3.507.2.2,0,0,1,2.155.321c0-.149.151-.179.378-.179l.134,0,0,0A.322.322,0,0,1,2.7.122.441.441,0,0,1,2.94.074c.075,0,.158.008.231.014S3.328.1,3.4.1A.36.36,0,0,0,3.591.063C3.58.13,3.336.17,3.107.17a.812.812,0,0,0,.165.017A1.491,1.491,0,0,0,3.583.145,1.5,1.5,0,0,1,3.891.1a.788.788,0,0,1,.272.048A.381.381,0,0,0,4.05.136a1.763,1.763,0,0,0-.432.087L3.57.237A2.167,2.167,0,0,1,3,.337.9.9,0,0,1,2.745.3a.156.156,0,0,1-.1-.066H2.636c-.066,0-.129-.009-.183-.009-.093,0-.188.011-.188.095s.128.127.4.127c.156,0,.335-.013.508-.025.148-.01.287-.02.392-.02.4,0,.421.071.421.2,0,.153-.489.185-.7.2-.01,0-.016.006-.015.01s.008.005.015.005L3.46.83a2.735,2.735,0,0,0,.284.023.641.641,0,0,0,.076,0l.024,0a.043.043,0,0,1,.034.012.037.037,0,0,1,.008.027.034.034,0,0,0,.006.027.03.03,0,0,0,.024.009A.136.136,0,0,0,4,.886a.128.128,0,0,1-.055.1.049.049,0,0,0,0,.022.127.127,0,0,1-.007.034c-.005.017-.01.033,0,.043a.032.032,0,0,0,.027.009h.012a.057.057,0,0,1-.057.037H3.886a.017.017,0,0,0,0,.006l0,0a.034.034,0,0,1,.024.017.064.064,0,0,1,0,.049.1.1,0,0,1-.074.073c-.023.008-.042.015-.047.042s0,.022.013.032.037.041,0,.1a.068.068,0,0,0-.014.016.275.275,0,0,1-.023.028c0,.011.016.022.027.03l.01.007a.143.143,0,0,1-.053.012A.048.048,0,0,1,3.7,1.506.054.054,0,0,0,3.672,1.5a.028.028,0,0,1-.016-.018.158.158,0,0,1,.03-.1s0,0,0,0h0l-.006,0a.109.109,0,0,0-.048.058c-.013.025-.025.05-.048.05h-.03c-.033.037-.033.051-.029.07A.03.03,0,0,1,3.5,1.541a.083.083,0,0,1,0-.071.08.08,0,0,0-.033-.015.027.027,0,0,1-.016-.022c0-.029.057-.068.092-.091h0s.006,0,.005-.007,0,0-.008,0a.011.011,0,0,0-.008,0,.083.083,0,0,1-.055.023.053.053,0,0,1-.041-.018.059.059,0,0,1-.011-.05.131.131,0,0,0,0-.022.128.128,0,0,0-.089.044A.161.161,0,0,1,3.454,1.2a.138.138,0,0,1,.06-.022l.044.008a.347.347,0,0,0,.067.01.05.05,0,0,0,.044-.018.106.106,0,0,0,.018-.052.248.248,0,0,1,.03-.092.046.046,0,0,0,0-.042.028.028,0,0,0-.024-.01A.315.315,0,0,0,3.6.972a.271.271,0,0,0-.135.036.671.671,0,0,1-.366.078.522.522,0,0,1-.247-.063.13.13,0,0,1,.018.086c0,.022,0,.04.015.05a.154.154,0,0,1,.068.1.154.154,0,0,1,0,.1c-.01.015-.043.024-.091.024a.47.47,0,0,1-.093-.01.049.049,0,0,0-.019,0l-.021,0H2.723c-.035.007-.036.027-.037.05a.068.068,0,0,1-.048.072.1.1,0,0,1-.029,0,.071.071,0,0,1-.068-.049.016.016,0,0,0-.014-.01l-.011,0H2.483s-.014,0-.014.007c0,.028,0,.044-.011.052s-.009.006-.017.008a.094.094,0,0,0-.02.007c.008.031.056.033.07.033a.1.1,0,0,1-.06.022.077.077,0,0,1-.059-.026A.054.054,0,0,1,2.358,1.5c-.008,0-.011-.042-.011-.044a.028.028,0,0,1,0-.014.029.029,0,0,0,0-.015.025.025,0,0,0-.015-.008s-.007,0-.007.008-.008.018-.011.018,0,0,0,0H2.284c0,.022.022.045.033.052a.1.1,0,0,1-.032.006.064.064,0,0,1-.049-.021.059.059,0,0,1-.015-.045A.245.245,0,0,1,2.2,1.392.077.077,0,0,1,2.2,1.327a.1.1,0,0,1,.075-.022c.025,0,.046,0,.046-.017s-.007-.022-.015-.022a.034.034,0,0,0-.019.007.043.043,0,0,1-.025.008.059.059,0,0,1-.047-.015.025.025,0,0,1,0-.022.084.084,0,0,1,0-.026.164.164,0,0,0-.085.041A.075.075,0,0,1,2.152,1.2a.117.117,0,0,1,.083-.047h.008a.108.108,0,0,1,.023-.021l.01-.008a.09.09,0,0,1,.028,0c.042,0,.069.035.1.075l0,.007c.023.035.045.068.077.068a.075.075,0,0,0,.042-.016.349.349,0,0,1,.111-.019l0-.005s0,0,0,0,0,0,0-.005a.37.37,0,0,0-.133-.059.066.066,0,0,1-.047-.04.256.256,0,0,1,.01-.2.247.247,0,0,1-.126.056h-.01A1.108,1.108,0,0,0,2.155.962a.237.237,0,0,0-.237.11l0,.007a.194.194,0,0,1-.2.1H1.68c-.012,0-.02.01-.029.022l-.011.014a.107.107,0,0,1-.09.035H1.538c.033-.015.03-.026.023-.048a.063.063,0,0,1-.033.033c-.025.067-.119.2-.218.2a.115.115,0,0,1-.062-.019A.1.1,0,0,0,1.3,1.362c0-.006,0-.01,0-.012h0s0,0-.009,0a.393.393,0,0,1-.113.045c-.078.022-.146.041-.153.155a.107.107,0,0,1-.033-.078c0-.017,0-.029-.011-.029s-.029.03-.029.044A.1.1,0,0,1,.94,1.41h0a.008.008,0,0,0,0-.005l-.006,0a.271.271,0,0,1-.086.015A.178.178,0,0,1,.792,1.41h0L.779,1.4a.276.276,0,0,0-.02-.022A.163.163,0,0,1,.648,1.5c.059-.064.035-.109.026-.122a.188.188,0,0,1-.048.048.059.059,0,0,0-.033-.07.009.009,0,0,0-.006,0,0,0,0,0,0,0,0h0a.077.077,0,0,1-.015.058.107.107,0,0,1-.077.041A.086.086,0,0,1,.408,1.37a.012.012,0,0,0,0-.007.008.008,0,0,0-.006,0l-.006,0a.058.058,0,0,0-.022.046.078.078,0,0,1-.044.069l-.012,0a.092.092,0,0,0-.025,0,.114.114,0,0,0,.036.1ZM1.252.342a.028.028,0,0,1,.02.008s.006,0,.006.008-.012.018-.035.029l0,0c.024.014.051.029.04.064C1.28.472,1.263.48,1.235.48S1.208.5,1.195.524c-.013.053,0,.086.026.1a.066.066,0,0,0,.03.007A.074.074,0,0,0,1.317.584l.006-.02c.006-.021.01-.035,0-.047S1.3.479,1.313.454A.027.027,0,0,1,1.335.44.075.075,0,0,1,1.36.446h0l.021.008C1.374.43,1.372.417,1.376.412a.007.007,0,0,1,.007,0l.008,0c.012,0,.017.013.022.026s.008.019.014.019.009-.029.008-.038a.057.057,0,0,0,0-.006c0-.022-.01-.029-.026-.037L1.283.314A.044.044,0,0,0,1.26.306a.024.024,0,0,0-.017.008l-.006,0c-.011.006-.023.014-.02.026a.006.006,0,0,0,.007,0h.013Z" transform="translate(27.538 26.65)" fill="#fff"/>
    <path id="Fill_77" data-name="Fill 77" d="M1.674,1.772a.08.08,0,0,1-.062-.029A.046.046,0,0,1,1.6,1.7c-.011,0-.019-.03-.019-.037a.024.024,0,0,1,.009-.015s.006-.007.006-.01,0-.006-.007-.008a.018.018,0,0,1-.008-.007s0,.007,0,.008c0,.022-.011.022-.019.022h-.03c0,.02.022.035.034.041a.12.12,0,0,1-.037.007.059.059,0,0,1-.045-.018.057.057,0,0,1-.014-.044l-.005-.009A.1.1,0,0,1,1.45,1.6a.068.068,0,0,1,.005-.059c.015-.019.045-.019.072-.019s.044,0,.044-.015-.007-.022-.014-.022a.036.036,0,0,0-.02.007.049.049,0,0,1-.028.008c-.04,0-.044-.021-.044-.037v-.03a.141.141,0,0,0-.074.044.07.07,0,0,1,.015-.062.1.1,0,0,1,.076-.042h.009l.016-.013.017-.013a.082.082,0,0,1,.028-.005c.039,0,.062.032.087.071l0,0c.022.034.043.067.076.067a.075.075,0,0,0,.042-.015.264.264,0,0,1,.1-.023l0,0s0,0,0-.006,0,0,0-.006a.325.325,0,0,1-.129-.188.337.337,0,0,1,.048-.2.4.4,0,0,0-.176.059.4.4,0,0,1-.175.059H1.4a.6.6,0,0,1-.084.256A.091.091,0,0,0,1.3,1.46c0,.063-.12.114-.159.114a.118.118,0,0,0,.047-.056v0s0,0,0,0,0,0-.013,0a.29.29,0,0,1-.1.039c-.058.013-.1.022-.107.131A.125.125,0,0,1,.937,1.6c0-.016,0-.028-.011-.028S.9,1.6.9,1.611a.069.069,0,0,1-.008-.066.016.016,0,0,0,0-.01h0s0,0,0,0A.428.428,0,0,1,.8,1.548a.085.085,0,0,1-.048-.011c0,.008,0,.008-.008.008a.039.039,0,0,0-.022-.033.157.157,0,0,1-.107.107.082.082,0,0,0,.026-.107.1.1,0,0,1-.048.041c.013-.036-.022-.063-.033-.07s0,0,0,.008a.094.094,0,0,1-.089.092H.458c-.049,0-.063-.044-.071-.068l0-.01c0-.008,0-.015,0-.017h0l-.007,0a.068.068,0,0,0-.021.049c0,.026-.009.053-.038.066a.189.189,0,0,1-.037-.015.113.113,0,0,0,.037.1H.305a.1.1,0,0,1-.071-.039.081.081,0,0,1-.017-.07.023.023,0,0,1,0-.015L.2,1.556l-.008,0a.044.044,0,0,1-.023-.029c0-.02.015-.04.034-.062a.236.236,0,0,0,.033-.045s0-.008,0-.009h0l-.009,0a.186.186,0,0,1-.1.042C.1,1.45.087,1.429.084,1.386v0c0-.008-.01-.021-.014-.031A.085.085,0,0,0,.01,1.4a.059.059,0,0,1,0-.063A.1.1,0,0,1,.09,1.286H.11a.066.066,0,0,0,.033-.015.063.063,0,0,1,.029-.009c.016,0,.026.011.038.026a.151.151,0,0,0,.038.035.045.045,0,0,0,.033.015.083.083,0,0,0,.03-.007s0,0,0,0A.015.015,0,0,0,.3,1.316C.224,1.289.2,1.263.195,1.246a.03.03,0,0,1,0-.027A.046.046,0,0,1,.2,1.2a.248.248,0,0,0,.01-.025.1.1,0,0,0-.062-.043h0A.114.114,0,0,1,.2,1.125a.092.092,0,0,1,.069.025H.309A.107.107,0,0,1,.365,1.2a.161.161,0,0,1,.02.046A.152.152,0,0,0,.4,1.286a.116.116,0,0,0,.09.032l.034,0,0,0,0,0,.006-.008A.487.487,0,0,0,.7,1.257a.229.229,0,0,1,.1-.015c.045,0,.094,0,.124.006l.027,0s0-.017-.015-.038A.746.746,0,0,1,.9,1.127H.881A.175.175,0,0,1,.715.99.289.289,0,0,1,.574.777C.569.756.567.743.56.743A.012.012,0,0,0,.55.749a.037.037,0,0,0,0,.032C.516.78.5.757.5.71.5.7.5.7.49.7a.023.023,0,0,0-.021.01.012.012,0,0,0,0,.011C.448.725.441.708.434.694l0-.006a.008.008,0,0,0,0-.006s0,0-.009,0A.139.139,0,0,1,.348.7a.117.117,0,0,1-.1-.057A.109.109,0,0,1,.257.53.087.087,0,0,0,.279.6.074.074,0,0,0,.333.621.066.066,0,0,0,.4.551C.4.539.4.537.387.532l0,0A.074.074,0,0,1,.32.486.085.085,0,0,1,.354.407C.357.4.357.4.354.393A.039.039,0,0,0,.327.378S.321.372.319.372s0,0-.006.005L.3.382A.128.128,0,0,1,.267.4a.005.005,0,0,1-.005,0L.239.371A.017.017,0,0,1,.224.378C.2.385.2.408.2.429V.437A.088.088,0,0,1,.163.371.058.058,0,0,1,.187.326a.141.141,0,0,1,0-.037A.057.057,0,0,1,.247.241.174.174,0,0,1,.313.256S.321.256.321.249A.049.049,0,0,1,.313.227C.313.219.306.219.3.219A.107.107,0,0,1,.219.193.051.051,0,0,1,.206.153.094.094,0,0,1,.211.133.26.26,0,0,0,.221.1C.216.088.2.085.193.082A.058.058,0,0,1,.176.075.089.089,0,0,1,.233.05.053.053,0,0,1,.287.1V.119h.03C.359.128.39.209.4.234.4.238.4.242.4.242s0,0,0-.009A.082.082,0,0,0,.412.2C.412.2.412.2.405.189a.041.041,0,0,1,0-.062A.253.253,0,0,1,.435.09.088.088,0,0,0,.4.03L.394.024H.405A.1.1,0,0,1,.494.09.268.268,0,0,1,.508.153.365.365,0,0,1,.5.247.443.443,0,0,0,.486.334c0,.081,0,.115.074.159A.86.86,0,0,1,.754.7c.033.043.064.085.09.113A.988.988,0,0,1,.866.493.477.477,0,0,1,.815.448C.851.443.87.4.893.345.9.327.909.308.918.289h0C.905.289.89.285.874.241H.882C.9.243.926.216.947.19s.04-.049.06-.052A.172.172,0,0,1,1.022,0a.254.254,0,0,1,.085.037A.033.033,0,0,1,1.144.012a.08.08,0,0,1,.025,0l.017,0A.174.174,0,0,1,1.231,0h.008l.022.005a.3.3,0,0,1,.092.032.341.341,0,0,1,.111.074.175.175,0,0,1,.017.042c0,.012.007.021.009.021.018.018.038.042.026.066h0a.16.16,0,0,1,.091.047.132.132,0,0,1-.082.1C1.564.43,1.516.515,1.469.6a.922.922,0,0,0-.048.091V.7A1.884,1.884,0,0,1,1.89.638a3.232,3.232,0,0,1,.532.053,1.957,1.957,0,0,0,.287.033c.357,0,.605-.091.605-.173C3.314.53,3.27.52,3.171.52c-.07,0-.162,0-.26.01l-.034,0c-.115.006-.237.012-.355.012a1.463,1.463,0,0,1-.37-.035C2.045.479,1.993.431,1.993.363c0-.12.148-.205.3-.236A.125.125,0,0,1,2.328.09a.415.415,0,0,1,.23-.05A2.387,2.387,0,0,1,2.8.058h.008A2.264,2.264,0,0,0,3.04.075.329.329,0,0,0,3.219.039C3.207.1,2.953.145,2.735.145A.791.791,0,0,0,2.9.162a1.529,1.529,0,0,0,.31-.041h0A1.511,1.511,0,0,1,3.52.079a.777.777,0,0,1,.271.048A.391.391,0,0,0,3.676.112,1.816,1.816,0,0,0,3.239.2L3.192.211a2.209,2.209,0,0,1-.57.1A.906.906,0,0,1,2.373.278C2.318.256,2.288.233,2.277.2,2.153.249,2.092.3,2.092.356S2.178.44,2.37.44c.094,0,.2-.006.316-.012h.007c.108-.006.23-.012.339-.012.275,0,.4.042.4.136a.125.125,0,0,1-.038.1,1.038,1.038,0,0,1-.682.17H2.587c0,.057.049.083.1.114A.344.344,0,0,1,2.8,1.02a.056.056,0,0,1,.016.053c-.007.028-.036.053-.082.069-.02.006-.023.016-.022.023,0,.025.06.055.092.055h.008a.1.1,0,0,1-.078.047l-.018,0a.015.015,0,0,0-.015.008.138.138,0,0,1-.023.029c-.013.013-.025.026-.023.04a.046.046,0,0,0,.021.03.048.048,0,0,1-.026.009c-.015,0-.025-.011-.036-.022l-.005-.006s0,0,0,.008a.064.064,0,0,1-.011.063.079.079,0,0,1-.054.025A.1.1,0,0,1,2.5,1.436l0,0a.073.073,0,0,0-.029-.01.022.022,0,0,0-.016.006.05.05,0,0,0-.01.041.078.078,0,0,1-.053.088l-.011,0a.251.251,0,0,1-.037.005.092.092,0,0,0,.007.059A.075.075,0,0,1,2.3,1.584a.065.065,0,0,1,0-.055L2.284,1.5a.039.039,0,0,1,0-.034.118.118,0,0,1,.071-.055s0-.006,0-.007h0a.046.046,0,0,0-.019,0,.1.1,0,0,0-.046.017l0,0a.078.078,0,0,1-.034.014.019.019,0,0,1-.014-.007.121.121,0,0,0-.023-.023c-.037.015-.044.023-.052.044a.048.048,0,0,1-.011-.04.072.072,0,0,1,.03-.052c0-.015-.007-.037-.007-.037a.028.028,0,0,1,0-.028.062.062,0,0,1,.052-.017.182.182,0,0,1,.055.009.009.009,0,0,0,.008,0,.012.012,0,0,0,0-.011s0,0,0,0,0,0,0,0a.031.031,0,0,1-.019-.037.052.052,0,0,1,.007-.022H2.239a.186.186,0,0,0-.062.009.093.093,0,0,1,.089-.054.1.1,0,0,1,.033.005.04.04,0,0,1,.056,0c.029.007.053.039.073.067l.008.011.007-.008a.093.093,0,0,0,.044-.03.366.366,0,0,1,.067-.055.032.032,0,0,0,.017-.02.041.041,0,0,0-.01-.031A.472.472,0,0,0,2.354,1c-.016.026-.069.04-.153.04a1.3,1.3,0,0,1-.272-.032.311.311,0,0,1,.123.31c0,.041,0,.071.01.077a.179.179,0,0,1,.063.188.044.044,0,0,1-.041.017A.408.408,0,0,1,2,1.582H1.945c-.029.007-.03.028-.031.05s0,.053-.046.065a.089.089,0,0,1-.028,0,.074.074,0,0,1-.065-.038.016.016,0,0,0-.015-.01l-.011,0H1.719s-.011,0-.011.011,0,.037-.014.037-.018.015-.034.015c.006.022.03.028.05.032l.017,0A.1.1,0,0,1,1.674,1.772ZM1.133.336a.031.031,0,0,1,.018.006c0,.006.005.01,0,.013s-.012.011-.033.016l.016.012c.019.014.033.025.025.054a.045.045,0,0,1-.048.026c-.01,0-.02.017-.029.032v0l0,0,0,.006a.074.074,0,0,0-.008.055A.069.069,0,0,0,1.1.607a.049.049,0,0,0,.023.006c.028,0,.051-.028.062-.054A.076.076,0,0,0,1.2.5C1.176.477,1.173.462,1.188.441A.022.022,0,0,1,1.21.426a.118.118,0,0,1,.031.006l.016,0C1.248.416,1.246.405,1.25.4s.008-.006.016-.006.011.014.014.023.008.021.015.021l.006,0s0-.018,0-.029v0s0-.008,0-.01S1.3.371,1.276.363L1.162.3A.067.067,0,0,0,1.136.3.015.015,0,0,0,1.122.3l0,0,0,0c-.009.008-.023.02-.016.032h0l.01,0h0A.056.056,0,0,1,1.133.336Z" transform="translate(27.489 28.536)" fill="#fff"/>
    <path id="Fill_79" data-name="Fill 79" d="M.646.325A.323.323,0,1,0,.322.642.323.323,0,0,0,.646.325" transform="translate(7.53 5.188)" fill="#fff"/>
    <path id="Fill_81" data-name="Fill 81" d="M.646.325A.328.328,0,0,0,.322,0,.327.327,0,0,0,0,.325a.323.323,0,1,0,.646,0" transform="translate(7.418 4.323)" fill="#fff"/>
    <path id="Fill_83" data-name="Fill 83" d="M.321.642A.321.321,0,1,0,0,.325.321.321,0,0,0,.321.642" transform="translate(7.927 3.623)" fill="#fff"/>
    <path id="Fill_85" data-name="Fill 85" d="M.321.65a.325.325,0,1,0,0-.65A.322.322,0,0,0,0,.325.322.322,0,0,0,.321.65" transform="translate(8.785 3.565)" fill="#fff"/>
    <path id="Fill_87" data-name="Fill 87" d="M.091.553A.326.326,0,0,0,.549.545a.321.321,0,0,0,0-.454.333.333,0,0,0-.458,0,.337.337,0,0,0,0,.462" transform="translate(12.685 3.064)" fill="#fff"/>
    <path id="Fill_89" data-name="Fill 89" d="M.552.551A.328.328,0,0,0,.552.1.319.319,0,0,0,.094.1a.321.321,0,0,0,0,.454.319.319,0,0,0,.458,0" transform="translate(12.156 2.373)" fill="#fff"/>
    <path id="Fill_91" data-name="Fill 91" d="M.552.553a.33.33,0,0,0,0-.462.333.333,0,0,0-.458,0,.33.33,0,0,0,0,.462.333.333,0,0,0,.458,0" transform="translate(11.298 2.234)" fill="#fff"/>
    <path id="Fill_93" data-name="Fill 93" d="M.552.551A.32.32,0,0,0,.552.1.319.319,0,0,0,.094.1a.33.33,0,0,0,0,.462A.326.326,0,0,0,.552.551" transform="translate(10.566 2.777)" fill="#fff"/>
    <path id="Fill_95" data-name="Fill 95" d="M0,.742l.255.568L.587.916A.073.073,0,0,0,.624.93a5.651,5.651,0,0,1,.041.705A.41.41,0,1,0,1.27,1.27,3.378,3.378,0,0,1,.816.842.148.148,0,0,0,.835.794l.55.048L1.163.259.757.613C.75.606.746.606.731.6L.7,0,.14.214.517.657A.083.083,0,0,0,.495.7Z" transform="translate(9.059 2.139)" fill="#fff"/>
    <path id="Fill_97" data-name="Fill 97" d="M4.841.28a.846.846,0,0,1,.181.447.955.955,0,0,1-.336-.31l.07.75A.65.65,0,0,1,5.022.9c-.026.491-.225.691-.392.727a.326.326,0,0,1-.384-.251c-.041-.218.148-.355.343-.159C4.619.764,4.261.771,4.1.967A.666.666,0,0,0,3.825,0,.7.7,0,0,0,4,.986c-.3-.152-.572.1-.307.443.059-.292.31-.233.369.008.051.192-.14.454-.462.547-.465.136-.613-.159-.724-.4.1-.074.339-.052.6.122L3.249.967a.761.761,0,0,1-.443.447,2.314,2.314,0,0,1,.14-.65L2.06,1.13a2.218,2.218,0,0,1,.55.362.725.725,0,0,1-.624-.015l.351.687c.074-.3.229-.491.343-.513.092.259.2.576-.233.8a.549.549,0,0,1-.716-.074c-.122-.2.015-.432.259-.259-.041-.424-.414-.424-.521-.107,0-.432-.107-.694-.565-.823a.652.652,0,0,0,.473.878C1.126,2.049.86,2.293,1.2,2.6c0-.28.225-.31.354-.129a.313.313,0,0,1-.1.447c-.144.092-.421.085-.786-.247a.758.758,0,0,1,.384.007L.576,2.09a.835.835,0,0,1-.03.454A.837.837,0,0,1,.366,2.1L0,2.422a4.366,4.366,0,0,1,1.226,1.2A15.03,15.03,0,0,1,3.2,2.647a15.494,15.494,0,0,1,2.094-.679A4.126,4.126,0,0,1,5.332.258Z" transform="translate(7.958 3.61)" fill="#fff"/>
    <path id="Fill_99" data-name="Fill 99" d="M5.126,32.807h0a.6.6,0,0,1-.612-.353,1,1,0,0,1,.116-.9c.147-.14.244-.239.235-.345-.006-.072-.059-.14-.168-.216a.455.455,0,0,0-.259-.078.664.664,0,0,0-.617.562,1.6,1.6,0,0,1-.144-1.533,2.426,2.426,0,0,0,.1-1.5,2.278,2.278,0,0,1-.915,1.385A1.73,1.73,0,0,0,2.783,29a3.473,3.473,0,0,1-.125-.772A2.494,2.494,0,0,1,3.2,26.66a.956.956,0,0,0,.235-.482.783.783,0,0,0-.062-.257c-.065-.182-.133-.37.077-.552a.183.183,0,0,1,.123-.041.952.952,0,0,1,.318.091.935.935,0,0,0,.309.089c1.031,0,1.718-1.354,1.864-2.691a10.091,10.091,0,0,1,1.487-4.009l.067-.122c.034-.233.068-.425.107-.605-.239.3-.466.654-.706,1.027a7.942,7.942,0,0,1-1.554,1.945,1.2,1.2,0,0,1-.361.9,2.587,2.587,0,0,1-1.813.815,1.621,1.621,0,0,1-1.027-.337l.076,0a1.384,1.384,0,0,0,1.293-.767,1.706,1.706,0,0,1-.51-.1,1.2,1.2,0,0,1-.588.146,1.464,1.464,0,0,1-1.022-.415.89.89,0,0,1-.269-.654.865.865,0,0,0,.659.345.853.853,0,0,0,.349-.079,2.179,2.179,0,0,1-.413-1.325c0-1.668,1.349-3.047,2.654-4.382,1.169-1.2,2.274-2.325,2.274-3.549A1.1,1.1,0,0,0,5.7,10.408a1.744,1.744,0,0,0-.989.31,1.1,1.1,0,0,1,.4.812A2.231,2.231,0,0,1,4.2,13.356a8.268,8.268,0,0,1-1.944,1.025c-1.058.446-2.057.867-2.239,1.708a1.853,1.853,0,0,1,.395-1.438,3.922,3.922,0,0,1,1.085-.79c.678-.385,1.378-.783,1.5-1.726a2.787,2.787,0,0,1-1.9,1.3.742.742,0,0,1-.366-.089H.742c.726,0,.993-.717,1.275-1.476.3-.81.613-1.647,1.516-1.647a1.716,1.716,0,0,1,.587.122,2.576,2.576,0,0,1,1.521-.628,1.926,1.926,0,0,1,1.172.439,1.824,1.824,0,0,1,.649,1.466c0,1.564-1.292,2.858-2.542,4.11S2.5,18.157,2.5,19.579a1.276,1.276,0,0,0,1.336,1.436c1.2,0,2.109-1.5,3.164-3.244.484-.8.984-1.623,1.566-2.408a19.708,19.708,0,0,0,1.814-4.241,24.337,24.337,0,0,1,.936-2.46,3.316,3.316,0,0,0-.873,1.225c-.328.64-.638,1.244-1.272,1.308.332-.28.343-.872.356-1.558A5.372,5.372,0,0,1,9.71,8.049a1.985,1.985,0,0,0,.1-1.218A3.3,3.3,0,0,0,9.29,8.344c-.164.85-.333,1.73-.963,1.905.254-.312.162-.753.065-1.22a3.935,3.935,0,0,1-.11-.785,3.129,3.129,0,0,1,.391-1.527,3.154,3.154,0,0,0,.385-1.338c-.257.1-.38.447-.51.816-.2.558-.419,1.19-1.157,1.191H7.336A1.693,1.693,0,0,0,7.8,6.028a1.951,1.951,0,0,1,.561-1.557A1.514,1.514,0,0,1,7.318,3.212a2.375,2.375,0,0,1,1.314-.469c-.2-.315.079-.617.347-.845.014.019.03.042.047.066.07.1.158.227.258.227a.136.136,0,0,0,.078-.027,11.135,11.135,0,0,1,1.927-1.038A17.517,17.517,0,0,1,13.377.5c.162-.031.132-.215.105-.377,0-.03-.01-.058-.013-.085.078-.006.144-.009.2-.009.4,0,.609.133.639.408A2.166,2.166,0,0,1,15.533,0a2.1,2.1,0,0,1,.077,1.732,1.809,1.809,0,0,1,.712.252,1.405,1.405,0,0,0,.655.219.828.828,0,0,0,.2-.024.986.986,0,0,1-.854.453,3.038,3.038,0,0,1-.523-.063c-.106-.019-.215-.038-.321-.05a3.81,3.81,0,0,1,1.875,1.446c.347.429.647.8,1.071.847a.987.987,0,0,1-.622.245,1.816,1.816,0,0,1-.955-.414l0,0a1.805,1.805,0,0,0-.938-.411h-.013a5.534,5.534,0,0,1,2.265,1.965c.23.328.383.544.63.553a.785.785,0,0,1-.532.23,1.748,1.748,0,0,1-.784-.288,3.41,3.41,0,0,0-.829-.355c1.812,1.2,1.909,2.16,1.765,2.935a1.5,1.5,0,0,1,.356,1.178c0,.07,0,.141.006.214a2.771,2.771,0,0,1,.843-.3c.11-.027.214-.052.305-.08-.118.117-.234.244-.346.366l-.013.014a10.44,10.44,0,0,0-2.049,3.3c-.406-.406-.837-.812-1-.967a.886.886,0,0,0-.626-.263,1.391,1.391,0,0,0-.178.014l-.045.005c.24.269.715.785,1.217,1.331.717.779,1.529,1.662,1.859,2.045a2.132,2.132,0,0,1,.546,1.354c.009.09.019.182.033.274a1.468,1.468,0,0,0,.336.639c.166.22.31.411.244.594a.508.508,0,0,0,.076.524.582.582,0,0,1,.119.322c0,.351-.249.586-.76.719a.76.76,0,0,0,.066-.679.667.667,0,0,0-.517-.317,1.139,1.139,0,0,1-.233.892.81.81,0,0,1-.6.258.666.666,0,0,1-.291-.062.428.428,0,0,0,.288-.232,1.043,1.043,0,0,0,.011-.842,1.054,1.054,0,0,1-.9.664.832.832,0,0,1-.738-.55.539.539,0,0,0,.31.109.412.412,0,0,0,.413-.352c0-.094-.082-.17-.169-.249a.535.535,0,0,1-.23-.386.582.582,0,0,1,.423-.586c.2-.1.393-.191.393-.518,0-.28-.162-.38-.314-.38s-.434.068-.506.524c-.24-.207-.2-.568-.163-.951a1.963,1.963,0,0,0-.019-.784.866.866,0,0,1-.488.911.919.919,0,0,0-.3.249c-.148-.148-.147-.371-.145-.653a2.326,2.326,0,0,0-.139-.953,1.3,1.3,0,0,1-.305.754.76.76,0,0,0-.193.39,2.711,2.711,0,0,0-1.152-.23,2.225,2.225,0,0,0-1.581.51c.327.255.668.482,1,.7,1.077.716,2.007,1.333,2.007,2.6,0,.7-.611,1.172-1.149,1.585-.445.341-.83.636-.83,1a3.064,3.064,0,0,0,1.166,1.664,3.736,3.736,0,0,0,1.95,1.046.668.668,0,0,0,.435-.227.639.639,0,0,1,.356-.205c.076,0,.151-.006.229-.006.2,0,.385.013.554.028a.493.493,0,0,1,.458.484.909.909,0,0,1,.688.583.753.753,0,0,1-.212.816.721.721,0,0,0-.644-.6.838.838,0,0,0-.4.116.914.914,0,0,1,.024.766,1.058,1.058,0,0,1-.7.534.764.764,0,0,0,.118-.7.294.294,0,0,0-.281-.142c-.178,0-.217.049-.262.105-.064.079-.136.168-.59.168h-.285c-.446,0-.464-.024-.673-.32L15.145,27c-.281-.392-.487-.575-.649-.575a.207.207,0,0,0-.074.014.3.3,0,0,0-.156.259.434.434,0,0,0,.2.431c-1,0-1.149-.612-1.3-1.2-.1-.4-.194-.777-.542-.945a4.141,4.141,0,0,1-.011,1.211A3.184,3.184,0,0,1,11.5,24.626a2.574,2.574,0,0,1-.063-.331c-.041-.28-.076-.523-.372-.67a.385.385,0,0,1-.236-.424c.022-.116.073-.133.2-.173a2.034,2.034,0,0,0,.236-.089,1.375,1.375,0,0,0,.809-1.385,2.356,2.356,0,0,0-1.252-2.226,6.281,6.281,0,0,1-.587,3.714,6.919,6.919,0,0,1-3.02,2.6c-.114.049-.233.1-.359.145-.728.286-1.553.61-1.553,1.5,0,2.014.9,3.1,1.746,3.1a.59.59,0,0,0,.488-.274.853.853,0,0,1,.749-.361c.355,0,.753.136.827.4a1.014,1.014,0,0,1,.155-.012c.383,0,.779.227.779.606a.648.648,0,0,1-.531.735.4.4,0,0,0,.016-.406.519.519,0,0,0-.433-.2.378.378,0,0,0-.188.041c-.116.077-.075.175-.02.31a.889.889,0,0,1,.087.348c0,.3-.082.628-.69.794a.376.376,0,0,0,.051-.363.294.294,0,0,0-.276-.121c-.171,0-.289.132-.414.272a.71.71,0,0,1-.52.319,2.516,2.516,0,0,1-.748-.119,1.912,1.912,0,0,0-.543-.094,1.625,1.625,0,0,0-.33.036c-.323.07-.4.208-.409.284a.233.233,0,0,0,.114.234ZM12.334,5.046a.357.357,0,0,1,.352.219.567.567,0,0,1-.181.749c-.133.126-.055.4.07.772a.968.968,0,0,0,.831.674.773.773,0,0,0,.31-.069.8.8,0,0,0,.467-.461.958.958,0,0,0-.058-.728c-.174-.366-.3-.605-.48-.605-.329,0-.541-.067-.65-.41-.1-.327.16-.475.466-.646.052-.029.107-.06.162-.092-.264-.08-.419-.179-.436-.277-.009-.052.021-.1.089-.155a.269.269,0,0,1,.175-.058.736.736,0,0,1,.234.052l.025.008a.573.573,0,0,0,.167.043.082.082,0,0,0,.079-.045c.063-.124-.086-.24-.206-.333l0,0c-.032-.025-.065-.051-.09-.074a.3.3,0,0,0-.224-.1.9.9,0,0,0-.289.071l-1.684.642c-.232.091-.351.174-.354.377a1.181,1.181,0,0,1-.011.128v.007c-.018.153-.039.326.089.367a.081.081,0,0,0,.027,0c.06,0,.1-.08.145-.173.063-.129.141-.289.311-.309a.328.328,0,0,1,.045,0,.14.14,0,0,1,.131.06c.051.086.007.264-.124.5l.134-.036.037-.01h0A1.767,1.767,0,0,1,12.334,5.046Zm-1.151-2.27h0l-.041.016a13.308,13.308,0,0,1-1.864.619,1.7,1.7,0,0,1,.762.39.62.62,0,0,0,.422.2l.053,0a.685.685,0,0,0,.506-.287,1.194,1.194,0,0,0,.163-.931Zm3.135-1.355a11.082,11.082,0,0,1-1.52.718l-.03.013-.274.115a1.123,1.123,0,0,0,.9.582.678.678,0,0,0,.426-.15.581.581,0,0,0,.217-.47A1.684,1.684,0,0,1,14.319,1.422Z" transform="translate(0.001 5.468)" fill="#fff"/>
    <path id="Fill_101" data-name="Fill 101" d="M1.4,2.784A1.392,1.392,0,1,1,2.787,1.392,1.4,1.4,0,0,1,1.4,2.784Zm0-2.43a1.038,1.038,0,1,0,1.03,1.038A1.041,1.041,0,0,0,1.4.354Z" transform="translate(51.497 31.026)" fill="#fff"/>
    <path id="Fill_103" data-name="Fill 103" d="M1.166,1.8h0a1.445,1.445,0,0,1-.244-.021,1.239,1.239,0,0,1-.694-.377.831.831,0,0,1-.218-.7A.82.82,0,0,1,.358.188,1.119,1.119,0,0,1,1,0a1.379,1.379,0,0,1,.245.022A1.191,1.191,0,0,1,2.017.5a.774.774,0,0,1,.135.592.791.791,0,0,1-.44.583A1.133,1.133,0,0,1,1.166,1.8ZM1.011.356A.792.792,0,0,0,.561.484a.445.445,0,0,0-.2.288A.425.425,0,0,0,.44,1.1a.85.85,0,0,0,.55.33.974.974,0,0,0,.171.015.608.608,0,0,0,.644-.41l0-.013A.446.446,0,0,0,1.812.96.7.7,0,0,0,1.181.37,1.054,1.054,0,0,0,1.011.356Z" transform="translate(45.936 33.513)" fill="#fff"/>
    <path id="Fill_105" data-name="Fill 105" d="M.76,1.782a.759.759,0,0,1-.613-.275A.754.754,0,0,1,.008.943a1.075,1.075,0,0,1,.423-.7A1.145,1.145,0,0,1,1.109,0a.841.841,0,0,1,.116.008.764.764,0,0,1,.5.273.738.738,0,0,1,.14.553,1.078,1.078,0,0,1-.425.709A1.141,1.141,0,0,1,.76,1.782ZM1.112.355a.786.786,0,0,0-.46.17.722.722,0,0,0-.3.535.4.4,0,0,0,.074.229.414.414,0,0,0,.331.138.759.759,0,0,0,.459-.167A.746.746,0,0,0,1.509.79a.417.417,0,0,0-.07-.3A.406.406,0,0,0,1.181.359.532.532,0,0,0,1.112.355Z" transform="translate(38.183 13.901)" fill="#fff"/>
    <path id="Fill_107" data-name="Fill 107" d="M.9,2.175H.871A.768.768,0,0,1,.31,1.916,1.138,1.138,0,0,1,0,1.1V1.074A1.2,1.2,0,0,1,.34.236.816.816,0,0,1,.912,0a.828.828,0,0,1,.642.343,1.249,1.249,0,0,1,.236.764,1.228,1.228,0,0,1-.343.831A.792.792,0,0,1,.9,2.175ZM.889.358a.447.447,0,0,0-.3.137.813.813,0,0,0-.229.587.8.8,0,0,0,.211.591.468.468,0,0,0,.31.151A.458.458,0,0,0,1.2,1.687.871.871,0,0,0,1.433,1.1.845.845,0,0,0,1.217.5.432.432,0,0,0,.908.358Z" transform="translate(44.317 31.15)" fill="#fff"/>
    <path id="Fill_109" data-name="Fill 109" d="M1.218,1.869a1.276,1.276,0,0,1-.554-.132,1.169,1.169,0,0,1-.611-.65A.813.813,0,0,1,.073.459a.827.827,0,0,1,.469-.4A1.091,1.091,0,0,1,.893,0a1.208,1.208,0,0,1,.543.131,1.176,1.176,0,0,1,.62.653.782.782,0,0,1-.022.62.771.771,0,0,1-.469.406A1.022,1.022,0,0,1,1.218,1.869ZM.9.356A.739.739,0,0,0,.657.4.414.414,0,0,0,.4.618a.479.479,0,0,0,.026.436.863.863,0,0,0,.395.365.963.963,0,0,0,.4.094.716.716,0,0,0,.225-.035.469.469,0,0,0,.266-.225A.436.436,0,0,0,1.72.906.833.833,0,0,0,1.284.452.842.842,0,0,0,.9.356Z" transform="translate(37.293 20.066)" fill="#fff"/>
    <path id="Fill_111" data-name="Fill 111" d="M13.166,37.146a1.084,1.084,0,0,1-.185-.015,5.279,5.279,0,0,0,.16-.542,9.636,9.636,0,0,1,.32-1.045,1.739,1.739,0,0,0-.583.967c-.119.344-.266.511-.451.511a.5.5,0,0,1-.273-.1,3.847,3.847,0,0,0,.332-.529,4.632,4.632,0,0,1,.99-1.35l.082-.058a1.653,1.653,0,0,0,.889-1.408,5.864,5.864,0,0,0,.012-1.569c-.021-.231-.043-.47-.049-.731-.021-.767-.243-.873-.48-.873a1.56,1.56,0,0,0-.168.012,1.471,1.471,0,0,1-.157.012c-.759,0-3.489-1.783-3.489-3.592a5.209,5.209,0,0,1,.037-.561h-.106c-1.292,0-1.843.449-1.843,1.5a1.245,1.245,0,0,0,.336,1.023c.125.105.251.23.233.351-.013.092-.107.176-.285.255-.472.218-4.175,1.754-4.333,1.819a.944.944,0,0,1-.314.069c-.182,0-.265-.1-.37-.235-.023-.029-.046-.057-.071-.087a.614.614,0,0,0-.439-.266.422.422,0,0,0-.233.078.158.158,0,0,0-.078.1c-.01.068.049.141.112.218a.513.513,0,0,1,.151.3c0,.539-.509.823-1.473.823-.128,0-.266-.005-.41-.015l.417-.7c.086-.164.16-.324.13-.39a.056.056,0,0,0-.041-.031H1.527c-.085,0-.173.132-.294.314l-.052.077-.509.657-.086,0A2.462,2.462,0,0,1,.1,32.077c.359-.357.628-.621.865-.854.2-.2.379-.372.552-.545a2.51,2.51,0,0,1,1.577-.65l.114-.017.011,0c1.036-.154,3.789-.562,3.789-1.5a1.368,1.368,0,0,0-.562-1.059,1.8,1.8,0,0,1-.7-1.47,2.257,2.257,0,0,1,.692-1.807,4.79,4.79,0,0,1,3.229-.842l.217,0A3.023,3.023,0,0,0,7.8,21.635a3.041,3.041,0,0,1-1.843-1.165,3.753,3.753,0,0,1-.608-1.793c-.281-.013-.554-.027-.819-.041l-.555-.029a7.543,7.543,0,0,1-1.155-.177,2.8,2.8,0,0,0-.527-.084.369.369,0,0,0-.246.073A.351.351,0,0,0,2,18.929c.043.071.1.173.17.291.184.319.435.754.661,1.079h0c.224.03.562.075.61.347a.353.353,0,0,1-.125.339.364.364,0,0,0-.1.137.192.192,0,0,0,.027.173.2.2,0,0,0,.168.082.209.209,0,0,0,.167-.077.19.19,0,0,0,.04-.156.662.662,0,0,1,.381-.088,2,2,0,0,1,.509.073,3.629,3.629,0,0,1,.867,1.321,5.151,5.151,0,0,0-1.259-.4c-.09,0-.141.015-.146.042s.056.075.157.11a2.841,2.841,0,0,1,.82.4l-.033.495a8.319,8.319,0,0,0-1.477-.827L3.4,22.252a1.452,1.452,0,0,1-1.039-.934c-.257-.629-1.029-2.02-1.385-2.625-.218-.364-.146-.507-.037-.643.086-.1.168-.223.24-.328l.051-.074c.126-.2.2-.261.317-.261a1.087,1.087,0,0,1,.136.013c.039.005.083.011.134.016.1.007.306.02.531.02a2.292,2.292,0,0,0,.795-.1c.087-.034.16-.062.233-.089-.741-.809-1.614-1.967-1.709-2.1a.63.63,0,0,0-.473-.318.6.6,0,0,0-.4.122l-.074.056c-.035.027-.074.057-.118.088-.059-.076-.127-.156-.206-.244-.127-.142-.258-.288-.395-.425.276-.2.522-.4.62-.484.042-.036.08-.071.114-.1.116-.108.2-.185.322-.185.092,0,.2,0,.3.009.076,0,.142.006.184.006a.543.543,0,0,1,.473.192,8.063,8.063,0,0,0,.992.838l.083.063.05.039.064.05a.688.688,0,0,1,.092-.092.717.717,0,0,1,.5-.2h.029a.741.741,0,0,1,.5.251,1.082,1.082,0,0,1,.251.771,1.725,1.725,0,0,1-.059.3,9.168,9.168,0,0,1,.794.723A5.975,5.975,0,0,1,6.6,13.8l-.1-.059,0-.014c.025-.079.052-.164.055-.167.11-.339.274-.877.394-1.269l.1-.33c.051-.161.06-.193.063-.2l.074-.244,1.089.425a.886.886,0,0,1,.1-.1,7,7,0,0,1,1.328-.881c.955-.542,1.943-1.1,1.943-1.958a1.313,1.313,0,0,0-.439-1,1,1,0,0,1,.133.772,1.338,1.338,0,0,1-.421.685,1.56,1.56,0,0,1-1.074.419,1.314,1.314,0,0,1-.764-.337.618.618,0,0,0-.27-.154.722.722,0,0,0-.391.2c.037.679-.25,1.052-.532,1.111a1.015,1.015,0,0,0-.025-.688c-.01-.015-.021-.022-.031-.022a.024.024,0,0,0-.014.005c-.087.051-.189.159-.2.539a1.063,1.063,0,0,1-.882.967c.109-.17.273-.8.162-.893a.077.077,0,0,0-.055-.023.349.349,0,0,0-.177.1.369.369,0,0,1-.189.106.31.31,0,0,1-.266-.3c-.007-.063-.067-.068-.133-.068H6.031c-.065,0-.131,0-.154-.062a.091.091,0,0,1,0-.072,1.351,1.351,0,0,1,.653-.456c.158-.059.68-.267.759-.459a.107.107,0,0,0,0-.088.21.21,0,0,0-.217-.111,3.853,3.853,0,0,0-1.385.58.818.818,0,0,1-.351.147.1.1,0,0,1-.073-.027c-.043-.045-.037-.14-.031-.241a.6.6,0,0,0-.017-.248c-.219-.509-.081-.625.147-.816.037-.031.075-.063.115-.1A9.953,9.953,0,0,1,7.491,7.162.642.642,0,0,1,7.9,6.557c.165-.058.327-.122.484-.183.189-.074.385-.151.579-.215L4.283.291C4.158.15,4.19.062,4.22.022A.067.067,0,0,1,4.271,0c.054,0,.135.051.241.151L9.958,5.5a2.127,2.127,0,0,0,.118-1.285,2.46,2.46,0,0,1,1.34,1.6h.069A3.151,3.151,0,0,1,13,6.19c.1.052.193.1.275.151a1.236,1.236,0,0,0,.54.218.378.378,0,0,0,.224-.076A.314.314,0,0,1,14,6.74a.954.954,0,0,1-.645.356,2.359,2.359,0,0,1,1.664,1.317c.2.363.381.677.864.747a.6.6,0,0,1-.467.205,1.124,1.124,0,0,1-.363-.069,3.357,3.357,0,0,1,.562,2.361c-.034.557-.061,1,.368,1.375a.523.523,0,0,1-.152.022,1.411,1.411,0,0,1-1.037-.779,4.7,4.7,0,0,1,.056,1.907,1.748,1.748,0,0,0,.029.954.544.544,0,0,1-.147.021c-.313,0-.568-.31-.7-.852a5.373,5.373,0,0,1-.3.882l.447.358-.173.188,0-.007-.044.052c-.713.764-1.071,1.153-1.237,1.34l-.126.136-.019-.01c-.039-.021-.129-.07-.143-.082a2.9,2.9,0,0,0-.86,1.635c0,.641.857,1.812,1.735,2.957a1.03,1.03,0,0,1-.066-.362v-.033a.782.782,0,0,1,.794-.78h.029a1.247,1.247,0,0,1,1.159,1.2v.037a.794.794,0,0,1-.8.779h-.029a1.15,1.15,0,0,1-.62-.225l.029.038a15.1,15.1,0,0,1,1.5,2.2c.679,1.413,1.235,2.016,1.861,2.016a1.464,1.464,0,0,0,1.484-1.506c0-1.541-.968-2.4-1.992-3.3-1.073-.95-2.183-1.933-2.183-3.784a2.419,2.419,0,0,1,.825-1.868,2.326,2.326,0,0,1,1.457-.613,1.617,1.617,0,0,1,1.288.506,1.468,1.468,0,0,1,.318-.037c1.059,0,1.2.752,1.329,1.479.117.643.228,1.25.945,1.334a1.068,1.068,0,0,1-.449.1c-.653,0-1.265-.566-1.6-1.476a2.4,2.4,0,0,0,1.616,2.094c.676.368,1.26.685,1.043,1.546-.021-.487-.717-.756-1.523-1.067-1.158-.447-2.6-1-2.664-2.459a1.562,1.562,0,0,1,.391-1.189,1.026,1.026,0,0,0-.646-.211A1.915,1.915,0,0,0,15.1,18.073c0,1.521.974,2.381,2,3.291,1.058.934,2.153,1.9,2.153,3.654a2.186,2.186,0,0,1-.779,1.75.817.817,0,0,0,.1.006,1.437,1.437,0,0,0,.985-.446A1.419,1.419,0,0,1,18.2,27.476a.989.989,0,0,1-.774-.317h0c-.028,0-.056,0-.086,0s-.063,0-.095,0a2.348,2.348,0,0,1-.327-.029c.327.662.718,1,1.16,1a.917.917,0,0,0,.126-.009,1.429,1.429,0,0,1-.9.335,1.553,1.553,0,0,1-1.168-.583,1.787,1.787,0,0,1-.415-1.447,4.881,4.881,0,0,1-.768-1.27c-.044-.1-.1-.156-.159-.156a.114.114,0,0,0-.082.04.46.46,0,0,0-.087.327,4.027,4.027,0,0,1-.448,1.685,3.3,3.3,0,0,0-.357,1.184,1.763,1.763,0,0,0,.436,1.056,1.224,1.224,0,0,0,.638.472.683.683,0,0,0,.35-.138.52.52,0,0,1,.245-.106.158.158,0,0,1,.062.012c.184.087.166.327.128.854l0,.036c-.021.3.02.952.068,1.71.012.19.024.385.036.583a1.185,1.185,0,0,1,.51-.672,1.233,1.233,0,0,1,.67-.211,1,1,0,0,1,.212.022.807.807,0,0,1,.517.34.748.748,0,0,1,.125.424.776.776,0,0,1-.019.181,1.194,1.194,0,0,1-.524.735,1.217,1.217,0,0,1-.676.214c-.031,0-.061,0-.092,0a.821.821,0,0,1-.635-.354,1.176,1.176,0,0,1-.059-.122l.008.23c.008.227.016.44.021.648.01.65-.138,1.009-.495,1.2a.573.573,0,0,0-.517-.325.374.374,0,0,0-.391.3.394.394,0,0,0,.167.307.577.577,0,0,1,.224.48C14.82,36.559,13.877,37.146,13.166,37.146Zm3.783-4.956a.885.885,0,0,0-.475.153.847.847,0,0,0-.369.513.451.451,0,0,0,.055.34.494.494,0,0,0,.425.2.911.911,0,0,0,.483-.151.866.866,0,0,0,.373-.509.441.441,0,0,0-.059-.339.429.429,0,0,0-.291-.189A.611.611,0,0,0,16.949,32.19Zm-4.857-5.354a.757.757,0,0,0-.6.345.651.651,0,0,0,.044.908.474.474,0,0,0,.276.085.771.771,0,0,0,.6-.343.663.663,0,0,0-.048-.912A.485.485,0,0,0,12.093,26.836Zm1.649-2.594a.774.774,0,0,0-.6.344.654.654,0,0,0,.044.908.474.474,0,0,0,.276.085.763.763,0,0,0,.6-.34.664.664,0,0,0-.041-.916A.481.481,0,0,0,13.741,24.241Zm.326-3.3a.441.441,0,0,0-.329.118.43.43,0,0,0-.133.317.878.878,0,0,0,.244.583.822.822,0,0,0,.568.273.443.443,0,0,0,.324-.114.452.452,0,0,0,.134-.318.832.832,0,0,0-.244-.58.853.853,0,0,0-.565-.281ZM7.342,11.824a.2.2,0,0,1-.006.021l0,.009-.009.031c-.244.8-.431,1.4-.542,1.746l5.775,3.33c.4-.435,1.26-1.36,1.285-1.385l-.532-.424a2.2,2.2,0,0,1-.07.735.651.651,0,0,1-.251-.514l-.425.535a.847.847,0,0,1,.532.173.661.661,0,0,1-.464.218.878.878,0,0,1-.463-.174c-.383-.253-.512-.445-.417-.62a.262.262,0,0,1,.229-.125.345.345,0,0,1,.335.325.5.5,0,0,0,.289-.281.366.366,0,0,0-.035-.3.331.331,0,0,0-.308-.153.67.67,0,0,0-.2.032,1.022,1.022,0,0,0,.606-1.174,1.056,1.056,0,0,0-.9.934c-.036-.24-.174-.418-.336-.432h-.014a.369.369,0,0,0-.268.11.5.5,0,0,0-.12.374.431.431,0,0,1,.133-.023.326.326,0,0,1,.29.17.277.277,0,0,1,0,.285.286.286,0,0,1-.257.138,1.058,1.058,0,0,1-.5-.178.657.657,0,0,1-.251-.968.74.74,0,0,1,.192.569l.472-.757a.834.834,0,0,1-.27.043.824.824,0,0,1-.266-.043l0,0a1.049,1.049,0,0,1,.648-.4l-.908-.528a1.04,1.04,0,0,1-.025.761v0a.817.817,0,0,1-.266-.461l-.421.786a.866.866,0,0,1,.442-.138.429.429,0,0,1,.149.024.685.685,0,0,1-.577.377.826.826,0,0,1-.386-.111c-.384-.22-.519-.428-.413-.635a.278.278,0,0,1,.252-.143.339.339,0,0,1,.332.294.5.5,0,0,0,.269-.3.36.36,0,0,0-.051-.287.325.325,0,0,0-.285-.126.673.673,0,0,0-.257.055,1.068,1.068,0,0,0,.361-1.262,1.036,1.036,0,0,0-.716,1.115c-.05-.223-.194-.373-.361-.373a.358.358,0,0,0-.27.117.487.487,0,0,0-.1.389.4.4,0,0,1,.157-.033.334.334,0,0,1,.289.161.258.258,0,0,1,.008.259.247.247,0,0,1-.229.12,1.177,1.177,0,0,1-.513-.171.644.644,0,0,1-.424-.82.886.886,0,0,1,.413.373l.255-.635a.569.569,0,0,1-.318.088.63.63,0,0,1-.258-.052,2.2,2.2,0,0,1,.605-.424l-.632-.248ZM3.8,14.912a.4.4,0,0,0-.262.1.7.7,0,0,0-.211.491v.048c0,.319.186.587.414.6a.4.4,0,0,0,.266-.107.706.706,0,0,0,.214-.491.693.693,0,0,0-.155-.51.374.374,0,0,0-.255-.133ZM8.576,7.066c-.473,0-.522.275-.574.566v.007A1.267,1.267,0,0,1,7.9,8a4.153,4.153,0,0,1,1.716-.475,2.24,2.24,0,0,1-.471-.236A1.17,1.17,0,0,0,8.576,7.066Z" transform="translate(33.88 1.236)" fill="#fff"/>
  </g>
</svg>